<?xml version="1.0" encoding="UTF-8"?>
<svg id="Layer_1" data-name="Layer 1" xmlns="http://www.w3.org/2000/svg" viewBox="0 0 1697.62 287">
  <defs>
    <style>
      .cls-1 {
        fill: #fff;
        stroke-width: 0px;
      }
    </style>
  </defs>
  <path class="cls-1" d="M193.2,33.88v196h-66.08v-72.24h-61.04v72.24H0V33.88h66.08v69.44h61.04V33.88h66.08Z"/>
  <path class="cls-1" d="M393.68,76.72l-63,156.24c-16.8,42-41.44,54.04-73.92,54.04-16.8,0-36.12-5.32-46.48-13.72l21-43.4c6.16,4.76,14.84,8.12,22.4,8.12s12.32-2.24,15.68-6.16l-64.4-155.12h64.96l31.64,82.04,32.2-82.04h59.92Z"/>
  <path class="cls-1" d="M579.59,153.16c0,49.28-33.88,79.52-73.92,79.52-19.04,0-32.76-5.04-42-15.4v12.6h-60.2V22.12h63.28v64.96c9.24-8.96,22.12-13.16,38.92-13.16,40.04,0,73.92,29.96,73.92,79.24ZM515.47,153.16c0-19.88-10.92-29.96-24.92-29.96s-24.92,10.08-24.92,29.96,10.92,30.24,24.92,30.24,24.92-10.36,24.92-30.24Z"/>
  <path class="cls-1" d="M709.23,73.92v56c-5.6-.84-9.52-1.12-14-1.12-19.04,0-32.48,8.68-32.48,33.04v68.04h-63.28V76.72h60.2v16.52c11.2-12.88,28.28-19.32,49.56-19.32Z"/>
  <path class="cls-1" d="M720.71,32.2c0-18.2,14.84-32.2,38.08-32.2s38.08,12.88,38.08,31.08c0,19.32-14.84,33.32-38.08,33.32s-38.08-14-38.08-32.2ZM727.15,76.72h63.28v153.16h-63.28V76.72Z"/>
  <path class="cls-1" d="M987.83,22.12v207.76h-60.2v-12.6c-9.24,10.36-22.96,15.4-42,15.4-40.04,0-73.92-30.24-73.92-79.52s33.88-79.24,73.92-79.24c16.8,0,29.68,4.2,38.92,13.16V22.12h63.28ZM925.67,153.16c0-19.88-10.92-29.96-24.92-29.96s-24.92,10.08-24.92,29.96,10.92,30.24,24.92,30.24,24.92-10.36,24.92-30.24Z"/>
  <path class="cls-1" d="M1235.34,195.72h-74.48l-13.16,34.16h-67.2l85.68-196h64.96l85.68,196h-68.32l-13.16-34.16ZM1217.14,148.12l-19.04-49.28-19.04,49.28h38.08Z"/>
  <path class="cls-1" d="M1501.62,153.44c0,49.28-33.88,79.24-73.92,79.24-16.8,0-29.68-4.2-38.92-13.16v64.68h-63.28V76.72h60.2v12.6c9.24-10.36,22.96-15.4,42-15.4,40.04,0,73.92,30.24,73.92,79.52ZM1437.5,153.44c0-19.88-10.92-30.24-24.92-30.24s-24.92,10.36-24.92,30.24,10.92,29.96,24.92,29.96,24.92-10.08,24.92-29.96Z"/>
  <path class="cls-1" d="M1697.62,153.44c0,49.28-33.88,79.24-73.92,79.24-16.8,0-29.68-4.2-38.92-13.16v64.68h-63.28V76.72h60.2v12.6c9.24-10.36,22.96-15.4,42-15.4,40.04,0,73.92,30.24,73.92,79.52ZM1633.5,153.44c0-19.88-10.92-30.24-24.92-30.24s-24.92,10.36-24.92,30.24,10.92,29.96,24.92,29.96,24.92-10.08,24.92-29.96Z"/>
</svg>