<?xml version="1.0" encoding="UTF-8"?>
<svg id="Layer_1" data-name="Layer 1" xmlns="http://www.w3.org/2000/svg" viewBox="0 0 1717.62 307">
  <defs>
    <style>
      .cls-1 {
        fill: none;
      }

      .cls-1, .cls-2 {
        stroke-width: 0px;
      }

      .cls-2 {
        fill: #fff;
      }
    </style>
  </defs>
  <path class="cls-1" d="M910.75,183.4c13.47,0,14.92-14.15,14.92-20.24,0-7.45-1.94-19.96-14.92-19.96s-14.92,12.51-14.92,19.96c0,6.09,1.45,20.24,14.92,20.24Z"/>
  <polygon class="cls-1" points="1203.65 148.12 1212.56 148.12 1208.1 136.59 1203.65 148.12"/>
  <path class="cls-1" d="M1618.58,143.2c-13.47,0-14.92,14.15-14.92,20.24,0,7.45,1.94,19.96,14.92,19.96s14.92-12.51,14.92-19.96c0-6.09-1.45-20.24-14.92-20.24Z"/>
  <path class="cls-1" d="M1422.58,183.4c12.98,0,14.92-12.51,14.92-19.96,0-6.09-1.45-20.24-14.92-20.24s-14.92,14.15-14.92,20.24c0,7.45,1.94,19.96,14.92,19.96Z"/>
  <path class="cls-1" d="M500.55,183.4c13.47,0,14.92-14.15,14.92-20.24,0-7.45-1.94-19.96-14.92-19.96s-14.92,12.51-14.92,19.96c0,6.09,1.45,20.24,14.92,20.24Z"/>
  <polygon class="cls-2" points="203.2 239.88 137.12 239.88 137.12 167.64 76.08 167.64 76.08 239.88 10 239.88 10 43.88 76.08 43.88 76.08 113.32 137.12 113.32 137.12 43.88 203.2 43.88 203.2 76.72 213.2 76.72 213.2 33.88 127.12 33.88 127.12 103.32 86.08 103.32 86.08 33.88 0 33.88 0 249.88 86.08 249.88 86.08 177.64 127.12 177.64 127.12 249.88 213.2 249.88 213.2 108.57 203.2 84.48 203.2 239.88"/>
  <path class="cls-2" d="M340.68,242.96c-16.8,42-41.44,54.04-73.92,54.04-16.8,0-36.12-5.32-46.48-13.72l21-43.4c6.16,4.76,14.84,8.12,22.4,8.12s12.32-2.24,15.68-6.16l-64.4-155.12h64.96l31.64,82.04,32.2-82.04h59.72v-10h-66.54l-25.3,64.46-24.86-64.46h-73.58v31.85l53.65,129.22c-.88.13-1.93.21-3.17.21-5.07,0-11.62-2.42-16.29-6.03l-9.75-7.53-29.82,61.62,6.15,4.99c11.77,9.54,32.98,15.95,52.78,15.95,40.86,0,66.52-18.61,83.19-60.3l53.52-132.74v-26.74l-62.8,155.74Z"/>
  <polygon class="cls-2" points="203.2 76.72 203.2 84.48 213.2 108.57 213.2 76.72 203.2 76.72"/>
  <path class="cls-2" d="M500.55,193.4c14,0,24.92-10.36,24.92-30.24s-10.92-29.96-24.92-29.96-24.92,10.08-24.92,29.96,10.92,30.24,24.92,30.24ZM500.55,143.2c12.98,0,14.92,12.51,14.92,19.96,0,6.09-1.45,20.24-14.92,20.24s-14.92-14.15-14.92-20.24c0-7.45,1.94-19.96,14.92-19.96Z"/>
  <path class="cls-2" d="M515.67,73.92c-11.09,0-20.68,1.64-28.92,4.98V22.12h-83.28v54.6h10v-44.6h63.28v64.96c9.24-8.96,22.12-13.16,38.92-13.16,40.04,0,73.92,29.96,73.92,79.24s-33.88,79.52-73.92,79.52c-19.04,0-32.76-5.04-42-15.4v12.6h-60.2V89.16l-10,24.8v135.92h80.2v-3.18c8.9,4.01,19.51,5.98,32,5.98,22.74,0,43.74-8.62,59.11-24.27,15.15-15.43,23.63-36.12,24.69-60.08v-10.24c-2.23-49.07-36.78-84.17-83.8-84.17Z"/>
  <polygon class="cls-2" points="413.48 76.72 403.48 76.72 403.48 86.72 403.68 86.72 403.48 87.22 403.48 113.96 413.48 89.16 413.48 76.72"/>
  <path class="cls-2" d="M729.23,76.72v-2.8h-10c-15.16,0-28.51,3.03-39.56,8.89v-6.09h-80.2v81.37c.08,1.67.12,3.36.12,5.07s-.04,3.46-.12,5.17v81.55h83.28v-78.04c0-16.36,6.51-23.04,22.48-23.04,4.17,0,7.68.28,12.52,1.01l9.4,1.41v-74.5h2.08ZM719.23,139.92c-5.6-.84-9.52-1.12-14-1.12-19.04,0-32.48,8.68-32.48,33.04v68.04h-63.28V86.72h60.2v16.52c11.2-12.88,28.28-19.32,49.56-19.32v56Z"/>
  <path class="cls-2" d="M599.47,158.09v10.24c.08-1.71.12-3.43.12-5.17s-.04-3.39-.12-5.07Z"/>
  <path class="cls-2" d="M816.87,41.08c0-24.19-19.77-41.08-48.08-41.08s-48.08,17.75-48.08,42.2c0,14.76,7.37,27.07,19.33,34.52h-10.81v74.81l-2.08-.31v98.66h83.28V76.72h-12.84c12.02-7.55,19.28-20.18,19.28-35.64ZM730.71,42.2c0-18.2,14.84-32.2,38.08-32.2s38.08,12.88,38.08,31.08c0,19.32-14.84,33.32-38.08,33.32s-38.08-14-38.08-32.2ZM800.43,86.72v153.16h-63.28V86.72h63.28Z"/>
  <polygon class="cls-2" points="729.23 76.72 727.15 76.72 727.15 151.22 729.23 151.53 729.23 76.72"/>
  <path class="cls-2" d="M885.83,163.16c0,19.88,10.92,30.24,24.92,30.24s24.92-10.36,24.92-30.24-10.92-29.96-24.92-29.96-24.92,10.08-24.92,29.96ZM910.75,143.2c12.98,0,14.92,12.51,14.92,19.96,0,6.09-1.45,20.24-14.92,20.24s-14.92-14.15-14.92-20.24c0-7.45,1.94-19.96,14.92-19.96Z"/>
  <path class="cls-2" d="M924.55,78.9c-8.24-3.34-17.83-4.98-28.92-4.98-48.63,0-83.92,37.53-83.92,89.24,0,26.16,8.58,48.72,24.81,65.25,15.37,15.65,36.36,24.27,59.11,24.27,12.49,0,23.1-1.97,32-5.98v3.18h80.2V22.12h-83.28v56.78ZM934.55,32.12h63.28v207.76h-60.2v-12.6c-9.24,10.36-22.96,15.4-42,15.4-40.04,0-73.92-30.24-73.92-79.52s33.88-79.24,73.92-79.24c16.8,0,29.68,4.2,38.92,13.16V32.12Z"/>
  <path class="cls-2" d="M1189.06,158.12h38.08l-19.04-49.28-19.04,49.28ZM1203.65,148.12l4.46-11.53,4.46,11.53h-8.91Z"/>
  <polygon class="cls-2" points="1258.5 239.88 1245.34 205.72 1170.86 205.72 1157.7 239.88 1090.5 239.88 1176.18 43.88 1241.14 43.88 1325.5 236.86 1325.5 211.89 1247.68 33.88 1169.64 33.88 1075.22 249.88 1164.57 249.88 1177.73 215.72 1238.48 215.72 1251.64 249.88 1325.5 249.88 1325.5 239.88 1258.5 239.88"/>
  <path class="cls-2" d="M1422.58,193.4c14,0,24.92-10.08,24.92-29.96s-10.92-30.24-24.92-30.24-24.92,10.36-24.92,30.24,10.92,29.96,24.92,29.96ZM1422.58,143.2c13.47,0,14.92,14.15,14.92,20.24,0,7.45-1.94,19.96-14.92,19.96s-14.92-12.51-14.92-19.96c0-6.09,1.45-20.24,14.92-20.24Z"/>
  <path class="cls-2" d="M1496.81,98.19c-15.37-15.65-36.37-24.27-59.11-24.27-12.49,0-23.1,1.97-32,5.98v-3.18h-80.2v135.18l10,22.88V86.72h60.2v12.6c9.24-10.36,22.96-15.4,42-15.4,40.04,0,73.92,30.24,73.92,79.52s-33.88,79.24-73.92,79.24c-16.8,0-29.68-4.2-38.92-13.16v64.68h-63.28v-44.32h-10v54.32h83.28v-56.5c8.24,3.34,17.83,4.98,28.92,4.98,47.02,0,81.57-35.09,83.8-84.17v-10.25c-1.06-23.96-9.54-44.64-24.69-60.07Z"/>
  <polygon class="cls-2" points="1335.5 234.77 1325.5 211.89 1325.5 236.86 1326.82 239.88 1325.5 239.88 1325.5 249.88 1335.5 249.88 1335.5 234.77"/>
  <path class="cls-2" d="M1618.58,133.2c-14,0-24.92,10.36-24.92,30.24s10.92,29.96,24.92,29.96,24.92-10.08,24.92-29.96-10.92-30.24-24.92-30.24ZM1618.58,183.4c-12.98,0-14.92-12.51-14.92-19.96,0-6.09,1.45-20.24,14.92-20.24s14.92,14.15,14.92,20.24c0,7.45-1.94,19.96-14.92,19.96Z"/>
  <path class="cls-2" d="M1692.81,98.19c-15.37-15.65-36.37-24.27-59.11-24.27-12.49,0-23.1,1.97-32,5.98v-3.18h-80.2v81.54c.08,1.71.12,3.43.12,5.18s-.04,3.4-.12,5.07v135.68h83.28v-56.5c8.24,3.34,17.83,4.98,28.92,4.98,48.63,0,83.92-37.53,83.92-89.24,0-26.16-8.58-48.72-24.81-65.25ZM1633.7,242.68c-16.8,0-29.68-4.2-38.92-13.16v64.68h-63.28V86.72h60.2v12.6c9.24-10.36,22.96-15.4,42-15.4,40.04,0,73.92,30.24,73.92,79.52s-33.88,79.24-73.92,79.24Z"/>
  <path class="cls-2" d="M1521.5,158.26v10.25c.08-1.68.12-3.37.12-5.07s-.04-3.47-.12-5.18Z"/>
  <polygon class="cls-2" points="203.2 84.48 203.2 76.72 199.98 76.72 203.2 84.48"/>
  <polygon class="cls-2" points="403.68 86.72 403.48 86.72 403.48 87.22 403.68 86.72"/>
  <polygon class="cls-2" points="418.49 76.72 413.48 76.72 413.48 89.16 418.49 76.72"/>
  <polygon class="cls-2" points="1326.82 239.88 1325.5 236.86 1325.5 239.88 1326.82 239.88"/>
  <polygon class="cls-2" points="1342.11 249.88 1335.5 234.77 1335.5 249.88 1342.11 249.88"/>
</svg>