<?xml version="1.0" encoding="UTF-8"?>
<svg id="Layer_1" data-name="Layer 1" xmlns="http://www.w3.org/2000/svg" viewBox="0 0 1245.31 189.59">
  <defs>
    <style>
      .cls-1 {
        fill: #88b9f2;
        stroke-width: 0px;
      }
    </style>
  </defs>
  <path class="cls-1" d="M34.96,154.39c-6.96,0-10.92-2.85-11.89-8.54-6.8.98-12.34-.04-16.63-3.05-4.29-3.01-6.43-7.53-6.43-13.55,0-1.63.32-3.42.97-5.37.65-1.95,1.58-3.79,2.79-5.5,1.21-1.71,2.67-3.13,4.37-4.27,1.7-1.14,3.52-1.71,5.46-1.71,3.07,0,5.99.89,8.74,2.67,2.59-5.99,6.88-8.98,12.87-8.98,2.26,0,4.41.63,6.43,1.9,2.02,1.27,3.6,2.63,4.73,4.08.64-1.13,1.94-1.86,3.88-2.18-1.46-1.78-2.35-3.81-2.67-6.08-.81,0-1.62.08-2.43.24-.81.16-1.94.24-3.4.24-2.75,0-4.78-.44-6.07-1.33-1.3-.89-2.23-1.9-2.79-3.04-.57-1.13-.85-2.23-.85-3.28s-.08-1.74-.24-2.07c-5.18-.49-9.75-2.56-13.72-6.21-3.97-3.65-5.95-8.55-5.95-14.71,0-1.62.24-3.12.73-4.5.49-1.38.97-2.55,1.46-3.53v.24l.73-2.19c0-1.13-.41-2.51-1.21-4.13-.33-.81-.69-1.7-1.09-2.67-.41-.97-.61-2.11-.61-3.41,0-3.41.73-6.49,2.18-9.24s3.31-5.11,5.58-7.06c2.26-1.95,4.89-3.36,7.89-4.26,2.99-.89,6.11-1.26,9.35-1.1.32-2.85,1.82-5.17,4.49-6.99,2.67-1.82,6.92-2.8,12.74-2.96,2.26,0,4.93.28,8.01.85,3.07.57,6.07,2.55,8.98,5.95,2.1,0,4.25.12,6.43.36,2.18.24,4.21.77,6.07,1.58,1.86.81,3.36,2.03,4.49,3.64,1.13,1.62,1.7,3.88,1.7,6.8,0,1.94-.57,3.85-1.7,5.71-1.13,1.86-2.59,3.28-4.37,4.25.81,1.3,1.49,2.55,2.06,3.76.57,1.21.85,2.79.85,4.73,0,3.73-1.54,6.35-4.61,7.89-3.08,1.54-6.31,2.31-9.71,2.31-2.1,0-4.41-.24-6.92-.73-2.51-.49-4.65-1.21-6.43-2.19-.49,1.62-1.21,3.24-2.18,4.85,1.94,1.3,3.68,2.59,5.22,3.88,1.54,1.3,3.03,2.83,4.49,4.61,1.62-.49,3.8-.73,6.55-.73,3.72,0,7.2,1.09,10.44,3.28,3.24,2.18,4.85,5.38,4.85,9.59,0,.81-.04,1.54-.12,2.18-.08.65-.21,1.38-.36,2.19,2.26,2.59,4.49,5.34,6.68,8.25,2.18,2.91,3.28,6.23,3.28,9.95s-1.09,6.68-3.28,8.86c-2.19,2.18-4.01,3.93-5.46,5.22-.33.16-.65.41-.97.73l-.24.24c0,1.3.08,2.27.24,2.91,0,5.18-1.86,9.19-5.58,12.02-3.72,2.83-8.34,4.25-13.84,4.25-1.78,0-3.68-.29-5.7-.85-2.03-.57-4.25-1.25-6.68-2.06-3.08,2.96-6.4,5.07-9.95,6.35-3.56,1.27-7.45,1.91-11.65,1.91ZM28.58,141.02c0,1.42.28,3.03.85,4.83.56,1.81,2.46,2.71,5.69,2.71,2.42,0,4.92-.32,7.51-.97,2.58-.64,5.24-2.18,7.99-4.61.48-.49,1.01-1.01,1.57-1.58.57-.57,1.09-1.01,1.58-1.34.64-.49,1.13-.97,1.45-1.46,1.29,1.13,2.99,2.18,5.08,3.16,2.1.97,5,1.46,8.72,1.46,1.61,0,3.31-.2,5.08-.61,1.77-.4,3.35-1.01,4.72-1.82,1.37-.81,2.42-1.9,3.15-3.28.73-1.37.85-3.03.36-4.98-.49-.97-.72-2.1-.72-3.4,0-1.13.4-2.02,1.21-2.67.8-.64,1.85-1.37,3.15-2.18,1.45-.97,2.86-2.14,4.23-3.52,1.37-1.37,2.06-3.36,2.06-5.95,0-2.43-.81-4.69-2.43-6.8-1.62-2.1-3.24-3.88-4.85-5.34-2.27-1.62-3.4-3.24-3.4-4.85,0-.97.24-1.86.73-2.67.49-.81.73-1.78.73-2.91,0-2.59-1.05-4.45-3.16-5.58-2.11-1.13-4.29-1.7-6.55-1.7-.97,0-2.1.41-3.4,1.21-.81.33-1.66.69-2.55,1.09-.89.41-2.15.28-3.76-.36l-.49-.49c-.33-.32-.49-.73-.49-1.21-1.78-3.07-3.28-5.06-4.49-5.95-1.21-.89-2.95-1.82-5.22-2.79-1.46-.64-2.71-1.25-3.76-1.82-1.05-.57-1.58-1.25-1.58-2.06s.4-1.54,1.21-2.18c.81-.65,1.62-1.29,2.43-1.94.65-.32,1.13-.81,1.46-1.46.81-.81,1.21-1.7,1.21-2.67v-3.4c0-2.1,1.05-3.16,3.16-3.16.81,0,1.29.04,1.46.12.16.08.32.2.49.36,1.78,2.27,3.84,3.85,6.19,4.73,2.34.89,5.06,1.34,8.13,1.34,2.91,0,4.94-.61,6.07-1.82,1.13-1.21,1.7-2.47,1.7-3.76s-.45-2.47-1.33-3.52c-.89-1.05-1.74-1.82-2.55-2.31-.65-.49-1.21-1.01-1.7-1.58-.49-.57-.73-1.09-.73-1.58,0-1.46,1.29-2.51,3.88-3.16,1.29-.32,2.55-.89,3.76-1.7,1.21-.81,1.82-2.1,1.82-3.88s-.53-3.16-1.58-4.13c-1.05-.97-2.35-1.66-3.88-2.06-1.54-.4-3.2-.61-4.98-.61s-3.4.08-4.86.24h-.73l-.97-.97c-1.46-3.24-3.6-5.14-6.43-5.71-2.83-.56-4.98-.85-6.43-.85-3.24,0-6.07.69-8.5,2.06-2.43,1.38-3.64,3.93-3.64,7.65,0,.81-.36,1.3-1.09,1.46-.73.16-1.33.24-1.82.24-1.46,0-2.51-.08-3.16-.24-1.3-.32-2.18-.49-2.67-.49-4.37,0-8.13,1.58-11.29,4.73s-4.73,6.92-4.73,11.29c0,1.62.44,3,1.34,4.13.89,1.13,1.74,2.11,2.55,2.91,1.29,1.3,1.94,2.35,1.94,3.16s-.65,1.54-1.94,2.19c-.81.49-1.66,1.3-2.55,2.43-.89,1.13-1.34,3.16-1.34,6.07,0,3.56,1.34,6.92,4.01,10.07,2.67,3.16,6.03,4.73,10.07,4.73.97,0,1.78-.08,2.43-.24,1.78-.49,2.87-.24,3.28.73.4.97.52,2.19.36,3.64,0,2.59.61,4.09,1.82,4.49,1.21.41,1.98.61,2.31.61,1.46,0,2.63-.04,3.52-.12.89-.08,2.06-.36,3.52-.85.97-.49,1.62-.85,1.94-1.09.32-.24.89-.44,1.7-.61,1.94-.32,2.91.41,2.91,2.18,0,1.3-.21,2.23-.61,2.79-.41.57-.61,1.42-.61,2.55,0,1.3.24,2.31.73,3.03.49.73,1.13,1.34,1.94,1.82.81.65,1.25,1.13,1.33,1.46.08.33.12,1.13.12,2.43,0,.97-.49,1.66-1.46,2.06-.97.41-2.11.45-3.4.12-1.29,0-2.21.36-2.78,1.09-.56.73-1.09,1.5-1.57,2.31-.65.97-1.25,1.82-1.81,2.55-.57.73-1.25,1.09-2.05,1.09-1.29,0-2.34-1.37-3.14-4.13-.32-1.29-1.09-2.51-2.29-3.64-1.21-1.13-2.7-1.7-4.47-1.7-3.06,0-4.95.69-5.68,2.06-.72,1.38-1.33,2.88-1.81,4.49-.32,1.13-.72,2.15-1.21,3.03-.49.89-1.21,1.33-2.17,1.33-1.13,0-2.58-.73-4.35-2.18-.8-.64-1.69-1.21-2.65-1.7-.97-.49-1.93-.73-2.9-.73-1.29,0-2.5.41-3.62,1.23-1.13.82-2.05,1.84-2.78,3.07-.73,1.23-1.29,2.5-1.69,3.8-.4,1.31-.6,2.53-.6,3.68,0,3.27,1.25,5.85,3.75,7.73,2.5,1.88,5.36,2.82,8.6,2.82.64,0,1.77-.32,3.39-.97.8-.32,1.61-.64,2.42-.97.81-.32,1.77-.49,2.91-.49.81,0,1.29.36,1.45,1.09.16.73.24,1.33.24,1.81Z"/>
  <path class="cls-1" d="M135.7,117.01c0-1.94.12-3.84.36-5.7.24-1.86.77-3.92,1.58-6.19-1.3-.32-2.63-.56-4.01-.73-1.38-.16-2.79-.49-4.25-.97-3.72-.97-7.04-2.99-9.95-6.07-2.91-3.07-4.37-6.63-4.37-10.68,0-2.91.85-5.38,2.55-7.4,1.7-2.02,3.76-3.68,6.19-4.98,2.43-1.29,5.06-2.26,7.89-2.91,2.83-.64,5.38-.97,7.65-.97v-.49c-2.75-3.72-5.18-7.2-7.28-10.44-2.11-3.24-3.16-7.2-3.16-11.89,0-4.37,1.09-8.05,3.28-11.05,2.19-2.99,5.14-5.62,8.86-7.89,2.91-1.62,5.95-2.18,9.1-1.7,3.16.49,6.19,1.62,9.1,3.4,2.91,1.78,5.58,4.05,8.01,6.8,2.43,2.75,4.37,5.58,5.83,8.5h.24c.32-.32.77-.93,1.34-1.82.56-.89,1.01-1.42,1.33-1.58.16-.32.57-.85,1.21-1.58.64-.73,1.33-1.46,2.06-2.19s1.46-1.41,2.18-2.06c.73-.65,1.25-1.13,1.58-1.46,2.1-1.78,4.53-2.91,7.28-3.4,2.75-.49,5.5-.73,8.25-.73,4.85.81,7.89,2.55,9.1,5.22s1.82,5.38,1.82,8.13c0,3.24-.33,6.31-.97,9.22-.65,2.91-1.7,5.75-3.16,8.5-.65,1.13-1.5,2.27-2.55,3.4-1.05,1.13-1.74,2.35-2.06,3.64,3.07.16,6.51.61,10.32,1.33,3.8.73,7.4,1.86,10.8,3.4,3.4,1.54,6.23,3.6,8.5,6.19,2.26,2.59,3.4,5.83,3.4,9.71s-.81,6.88-2.43,8.98c-1.62,2.1-3.64,3.64-6.07,4.61-2.43.97-5.14,1.58-8.13,1.82-3,.24-5.95.45-8.86.61.65,1.13,1.29,2.43,1.94,3.88.65,1.46,1.17,3.03,1.58,4.73.4,1.7.52,3.52.36,5.46-.16,1.94-.73,3.97-1.7,6.07-1.46,2.91-3.52,4.98-6.19,6.19s-5.38,1.82-8.13,1.82c-5.18,0-10.04-1.13-14.56-3.4-4.53-2.26-8.66-5.01-12.38-8.25h-.49c-2.1,3.08-4.61,5.87-7.53,8.37-2.91,2.51-6.4,3.76-10.44,3.76-4.85,0-8.58-1.82-11.17-5.46-2.59-3.64-3.88-7.56-3.88-11.77ZM141.52,117.25c0,2.75.85,5.22,2.55,7.4,1.7,2.18,3.92,3.28,6.68,3.28,2.91,0,5.26-.81,7.04-2.43,1.78-1.62,3.28-3.36,4.49-5.22,1.21-1.86,2.26-3.6,3.16-5.22.89-1.62,1.98-2.43,3.28-2.43,1.13,0,1.94.49,2.43,1.46.49.97.97,1.78,1.46,2.43.81,1.13,1.74,2.15,2.79,3.03,1.05.89,2.22,1.74,3.52,2.55,2.59,1.62,5.38,2.91,8.38,3.88,2.99.97,5.95,1.46,8.86,1.46,2.1,0,3.88-.36,5.34-1.09,1.46-.73,2.75-2.06,3.88-4.01.97-2.1,1.13-4.25.49-6.43-.65-2.18-1.54-4.25-2.67-6.19-1.13-1.94-2.27-3.64-3.4-5.1-1.13-1.46-1.7-2.51-1.7-3.16,0-.81.36-1.49,1.09-2.06.73-.57,1.49-.85,2.31-.85.32,0,1.05.04,2.18.12,1.13.08,1.86.12,2.18.12h12.87c2.75-.32,4.93-1.21,6.55-2.67,1.62-1.46,2.43-3.64,2.43-6.55-.33-2.59-1.46-4.77-3.4-6.55-1.94-1.78-4.21-3.24-6.8-4.37-2.59-1.13-5.3-1.9-8.13-2.31-2.83-.4-5.3-.61-7.4-.61-1.78,0-3.4.08-4.85.24-1.46.16-3.08.24-4.85.24-.81,0-1.58-.28-2.31-.85-.73-.56-1.09-1.41-1.09-2.55,0-.32.16-.61.49-.85.32-.24.49-.52.49-.85,4.21-3.72,7.48-7.73,9.83-12.02,2.34-4.29,3.52-9.26,3.52-14.93,0-.97-.16-2.19-.49-3.64-.33-1.46-1.94-2.59-4.85-3.4-3.24,0-6.03.53-8.38,1.58-2.35,1.05-4.41,2.43-6.19,4.13-1.78,1.7-3.4,3.68-4.85,5.95-1.46,2.27-3,4.7-4.61,7.28-.33.81-1.13,1.21-2.43,1.21-1.13,0-1.9-.32-2.31-.97-.41-.64-.69-1.46-.85-2.43-.16-.97-.28-1.94-.36-2.91-.08-.97-.2-1.78-.36-2.43-.49-1.62-1.34-3.31-2.55-5.1-1.21-1.78-2.63-3.44-4.25-4.98-1.62-1.54-3.36-2.79-5.22-3.76-1.86-.97-3.68-1.46-5.46-1.46s-3.56.36-5.34,1.09c-1.78.73-3.4,1.74-4.85,3.03-1.46,1.3-2.67,2.79-3.64,4.49-.97,1.7-1.46,3.6-1.46,5.7,0,4.21,1.25,8.01,3.76,11.41,2.51,3.4,5.06,6.64,7.65,9.71.32.16.89.77,1.7,1.82.81,1.05,1.37,1.66,1.7,1.82v1.21c0,1.46-.73,2.51-2.18,3.16-2.11-.16-4.29-.24-6.55-.24s-4.49.16-6.68.49c-2.18.33-4.29.97-6.31,1.94-2.03.97-3.76,2.35-5.22,4.13-.81,1.3-1.33,2.47-1.58,3.52-.24,1.05.12,2.47,1.09,4.25,2.59,4.05,5.95,6.4,10.07,7.04,4.13.65,8.38.89,12.74.73,1.62,0,2.43.97,2.43,2.91,0,1.3-.36,2.27-1.09,2.91-.73.65-1.5,1.46-2.31,2.43-.97,1.46-1.62,3.16-1.94,5.1-.33,1.94-.49,3.72-.49,5.34Z"/>
  <path class="cls-1" d="M262.41,158.35c0-5.64,1.85-10.48,5.56-14.51s8.47-6.21,14.28-6.54c2.58-.32,5.04-.2,7.38.36,2.34.57,4.31,1.41,5.93,2.54,0-1.78.49-3.55,1.46-5.32.97-1.78,2.26-3.35,3.88-4.72,1.62-1.37,3.4-2.5,5.34-3.39,1.94-.89,3.8-1.33,5.58-1.33h1.94c.49,0,1.13.08,1.94.24,0-6.45,2.59-11.53,7.77-15.24l-.97-3.4c-2.43,1.3-4.85,1.94-7.28,1.94-1.78,0-3.16-.12-4.13-.36-.97-.24-2.1-.61-3.4-1.09l-1.21-.49c-1.13,2.39-2.43,4.32-3.88,5.8-1.46,1.48-3.72,2.22-6.8,2.22-3.55,0-6.58-.8-9.08-2.42-2.5-1.61-4.16-4.35-4.96-8.23-.16,0-.49.04-.97.12-.49.08-1.77.12-3.87.12-4.84,0-8.75-1.13-11.74-3.39-2.99-2.26-4.48-5.97-4.48-11.13v-2.42c0-.65.08-1.37.24-2.18-2.59-.81-5.14-2.14-7.65-3.99-2.51-1.85-3.76-4.4-3.76-7.62,0-1.45.32-2.74.97-3.87.64-1.13,1.54-2.34,2.67-3.63-4.05-1.93-6.72-4.35-8.01-7.26-1.3-2.91-1.94-5.41-1.94-7.5,0-1.45.08-3.11.24-4.96.16-1.85.61-3.63,1.34-5.33.73-1.69,1.94-3.14,3.64-4.35s4.08-1.98,7.15-2.3c1.29-3.8,3.34-6.61,6.16-8.44,2.81-1.82,6-2.73,9.54-2.73,2.09,0,3.9.5,5.43,1.48,1.53.99,2.81,2.19,3.86,3.58,1.05,1.4,1.85,2.88,2.42,4.45.56,1.57.93,3.01,1.09,4.32,5.79-.32,9.69,1.09,11.71,4.25,2.01,3.16,3.02,7.49,3.02,12.99,0,.65-.04,1.38-.12,2.19-.08.81-.12,2.1-.12,3.88h4.05c1.72,0,3.65.33,5.78.97,0-4.04,1.05-7,3.15-8.86,2.1-1.86,5.25-3.19,9.45-4.01.32-4.04,1.29-7.28,2.91-9.71,1.62-2.43,4.52-4.29,8.72-5.58,3.88-1.13,6.86-1.21,8.96-.24,2.1.97,3.47,1.86,4.12,2.67,1.62-1.13,3.55-1.7,5.81-1.7,3.23,0,5.85.89,7.87,2.67,2.02,1.78,3.43,3.96,4.24,6.54.8,2.59,1.09,4.97.85,7.15-.24,2.18-.77,4.08-1.57,5.69,2.26,1.78,4.4,3.84,6.42,6.18,2.02,2.34,3.03,5.13,3.03,8.36,0,3.55-.99,6.58-2.96,9.09-1.98,2.5-4.31,4.73-6.99,6.66,3.56,2.42,5.62,4.93,6.19,7.51.56,2.59.85,4.77.85,6.54,0,2.1-.49,4.16-1.46,6.18-.97,2.02-2.67,3.92-5.1,5.69,1.13,1.62,2.1,3.27,2.91,4.97.81,1.7,1.29,4.4,1.46,8.12,0,3.88-1.05,6.87-3.16,8.97-2.1,2.1-4.21,3.88-6.31,5.33.81,5.66,0,10.18-2.43,13.58-2.43,3.39-6.72,5.57-12.87,6.54-.49,3.07-1.7,5.57-3.64,7.51-1.94,1.94-4.17,3.39-6.68,4.37-2.51.97-5.18,1.41-8.01,1.33-2.83-.08-5.46-.61-7.89-1.58-1.94,2.75-4.21,4.68-6.8,5.82-2.59,1.13-5.5,1.7-8.74,1.7h-4.61c-1.13-.33-2.18-.81-3.16-1.46-.97-.65-1.78-1.38-2.43-2.18-1.78,1.29-3.64,2.22-5.58,2.79-1.94.57-4.13.85-6.55.85-2.59,0-4.9-.64-6.92-1.93-2.03-1.29-3.68-2.94-4.98-4.96-1.3-2.02-2.31-4.28-3.03-6.77-.73-2.5-1.09-4.88-1.09-7.14ZM268.72,158.13c0,1.47.2,3.07.61,4.78.4,1.71.97,3.35,1.7,4.9.73,1.55,1.7,2.86,2.91,3.92,1.21,1.06,2.71,1.59,4.49,1.59,1.29,0,2.71-.21,4.25-.61,1.54-.41,3.11-1.42,4.73-3.03.49-.65,1.05-1.26,1.7-1.82.64-.57,1.46-.85,2.43-.85,1.29,0,2.14.28,2.55.85.4.56.77,1.25,1.09,2.06.32.81.81,1.58,1.46,2.31.64.73,1.78,1.09,3.4,1.09,2.26,0,4.29-.29,6.07-.86,1.78-.58,3.31-1.93,4.61-4.06,0-.33.08-.61.24-.86.16-.25.24-.46.24-.61.32-.82.73-1.6,1.21-2.33.49-.74,1.46-1.11,2.91-1.11.32,0,.64.12.97.37.32.24.65.53.97.86h.24c.16,0,.24.08.24.24,2.1,1.31,4.13,1.97,6.07,1.97.81,0,1.62-.04,2.43-.12.81-.09,1.62-.29,2.43-.62,3.24-1.31,5.3-2.54,6.19-3.68.89-1.15,1.25-3.52,1.09-7.13.32-1.31,1.01-2.01,2.06-2.09,1.05-.09,2.22-.12,3.52-.12,2.26,0,4.49-.73,6.68-2.19,2.19-1.46,3.28-3.48,3.28-6.07,0-1.13-.16-2.26-.49-3.4-.33-1.13-.49-2.34-.49-3.64,0-1.13,1.13-2.26,3.4-3.4,1.62-.81,3.24-1.86,4.85-3.16,1.62-1.29,2.43-3.4,2.43-6.31,0-1.94-.24-3.48-.73-4.61-.49-1.13-1.54-2.34-3.16-3.64-.81-.81-1.46-1.62-1.94-2.43-.49-.81-.73-1.62-.73-2.43.32-1.13.61-1.86.85-2.18.24-.32.52-.56.85-.73,1.94-1.13,3.6-2.43,4.98-3.88,1.37-1.46,2.06-2.99,2.06-4.61,0-1.94-.61-3.92-1.82-5.95-1.21-2.02-2.88-3.68-4.98-4.98-1.13-.65-1.94-1.33-2.43-2.06-.49-.73-.73-1.25-.73-1.58,0-1.13.49-2.06,1.46-2.79.97-.73,1.94-1.33,2.91-1.82,1.78-.97,3.6-2.14,5.46-3.52,1.86-1.37,2.79-3.84,2.79-7.4,0-2.26-.69-4.04-2.06-5.34-1.38-1.29-2.88-2.43-4.49-3.4-1.13-.81-2.1-1.49-2.91-2.06-.81-.56-1.21-1.41-1.21-2.55,0-.81.49-1.86,1.46-3.16,1.13-1.46,1.7-2.75,1.7-3.88,0-1.46-.28-3.16-.85-5.1-.57-1.94-1.5-3.31-2.79-4.13-1.94-.97-3.6-.93-4.98.12-1.38,1.05-2.96,1.58-4.73,1.58-1.46,0-2.43-.56-2.91-1.7-.81-1.29-1.94-2.02-3.4-2.18-1.46-.16-2.91.08-4.37.73-3.56,1.13-5.67,2.67-6.31,4.61-.65,1.94-.89,4.78-.73,8.5l-.24.24c-.33.33-.65.65-.97.97-.33.33-.65.49-.97.49-2.1.33-3.8.61-5.1.85-1.3.24-2.31.65-3.03,1.21-.73.57-1.26,1.33-1.58,2.31-.33.97-.49,2.35-.49,4.13.32,1.94.64,3.32.97,4.13.32.81.49,1.62.49,2.43,0,2.43-1.05,3.64-3.16,3.64-1.3,0-2.23-.32-2.79-.97-.57-.64-1.09-1.37-1.58-2.18l-1.21-1.46c-1.46-.81-3.6-1.25-6.43-1.33-2.83-.08-5.06.28-6.68,1.09-.97.97-1.78,1.46-2.43,1.46-.97,0-1.7-.36-2.19-1.09-.49-.73-.73-1.49-.73-2.31,0-.65.24-1.49.73-2.55.49-1.05.97-1.82,1.46-2.31.32-1.13.65-2.22.97-3.28.32-1.05.49-2.22.49-3.52,0-2.1-.36-4.49-1.09-7.16s-2.39-4.01-4.98-4.01c-.81,0-1.86.16-3.16.49-.49.16-.93.28-1.33.36-.41.08-.85.12-1.33.12-1.62,0-2.63-.73-3.03-2.19-.41-1.46-.69-3.07-.85-4.85,0-.32-.08-.93-.24-1.82-.16-.89-.45-1.78-.85-2.67-.41-.89-1.01-1.66-1.82-2.31-.81-.65-1.86-.97-3.16-.97-2.27,0-4.41.73-6.43,2.18-2.03,1.46-3.36,3.32-4.01,5.58-.16.97-.41,1.82-.73,2.55-.33.73-1.05,1.09-2.19,1.09-.65,0-1.05-.08-1.21-.24-.65-.32-1.13-.49-1.46-.49-1.46,0-2.59.49-3.4,1.46-.81.98-1.38,2.15-1.7,3.53-.33,1.38-.53,2.8-.61,4.26-.08,1.46-.12,2.6-.12,3.41,0,1.3.49,2.64,1.46,4.02.97,1.38,2.1,2.31,3.4,2.8.32.33.77.49,1.33.49s1.09.08,1.58.25c1.29.16,2.55.45,3.76.85,1.21.41,1.82,1.26,1.82,2.56,0,.97-.08,1.62-.24,1.95-3.24,2.6-5.14,4.46-5.7,5.6-.57,1.14-.85,2.03-.85,2.68,0,1.3.36,2.32,1.09,3.05.73.73,1.66,1.26,2.79,1.59,1.13.33,2.31.49,3.52.49h3.03c1.62.33,2.43,1.38,2.43,3.17,0,.33-.08.65-.24.97-.33.65-.49,1.14-.49,1.46-1.3,3.09-1.7,5.65-1.21,7.68.49,2.03,1.46,3.57,2.91,4.63,1.46,1.05,3.28,1.67,5.46,1.83,2.19.16,4.25-.08,6.19-.73.49-.33,1.05-.61,1.7-.85.64-.24,1.37-.36,2.18-.36,1.29,0,2.06.49,2.31,1.46.24.97.44,2.11.61,3.41.16,1.62.65,3.29,1.46,5,.81,1.71,3.16,2.56,7.04,2.56,1.29,0,2.18-.49,2.67-1.46.49-.97.89-2.1,1.21-3.4.32-1.13.77-2.19,1.33-3.16.57-.97,1.58-1.46,3.03-1.46.97,0,1.86.16,2.67.49.81.33,1.62.65,2.43.97.81.33,1.7.65,2.67.97.97.33,1.86.49,2.67.49,2.75,0,4.49-.52,5.22-1.58.73-1.05,1.25-2.47,1.58-4.25.32-1.46.69-2.39,1.09-2.79.4-.4,1.34-.61,2.79-.61,1.13,0,1.82.36,2.06,1.09.24.73.44,1.5.61,2.31v2.91c0,.65-.04,1.18-.12,1.58-.08.41-.12.69-.12.85v.97c0,.81.12,1.78.36,2.91.24,1.13.77,2.27,1.58,3.4.32.32.77.72,1.34,1.21.56.49.85.97.85,1.44,0,.8-.36,1.49-1.09,2.05-.73.56-1.58,1.09-2.55,1.57-1.46.8-2.95,1.77-4.49,2.89-1.54,1.13-2.31,3.06-2.31,5.79,0,.96.2,1.85.61,2.65.4.8.77,1.53,1.09,2.17.32.32.61.77.85,1.33s.36,1.16.36,1.81c0,.49-.12,1.01-.36,1.57s-1.01.84-2.31.84c-1.62,0-2.67-.4-3.16-1.21-1.3-.96-2.51-1.53-3.64-1.69-1.13-.16-2.35-.24-3.64-.24-3.72,0-6.4,1.41-8.01,4.22-1.62,2.81-2.27,6.47-1.94,10.98-.33.97-.77,1.57-1.33,1.81-.57.24-1.26.36-2.06.36-.65,0-1.13-.04-1.46-.12-.33-.08-.89-.36-1.7-.85l-2.19-1.7c-.97-.81-2.31-1.46-4.01-1.94s-3.6-.65-5.7-.49c-3.72.33-7.12,1.71-10.2,4.15-3.08,2.43-4.61,5.78-4.61,10.03Z"/>
  <path class="cls-1" d="M441.32,146.14c-.65.81-1.66,1.74-3.03,2.79-1.38,1.05-3.68,1.42-6.92,1.09-5.83,0-10.56-2.1-14.2-6.3-3.64-4.2-5.38-9.37-5.22-15.51-3.98-.32-7.45-1.98-10.39-4.97-2.95-2.99-4.42-6.66-4.42-11.03,0-1.93.32-3.71.97-5.33.64-1.62,1.37-3.23,2.18-4.84l.49-.97c.16-.32.32-.6.49-.85.16-.24.24-.44.24-.61l-1.94-1.7c-2.29-2.26-4.36-4.52-6.21-6.78-1.85-2.26-2.77-5.17-2.77-8.72s1.05-6.78,3.16-9.21c2.1-2.42,4.53-4.76,7.28-7.02-1.46-3.07-1.3-5.94.49-8.6,1.78-2.66,4.29-4.08,7.53-4.24-.49-3.71-.21-7.02.85-9.93,1.05-2.91,2.51-5.37,4.37-7.39,1.86-2.02,4.01-3.55,6.43-4.6,2.43-1.05,4.86-1.57,7.28-1.57s4.69.38,6.8,1.15c2.1.77,3.8,1.68,5.1,2.75,1.46-1.68,2.91-2.83,4.37-3.45s3.24-1.09,5.34-1.42c2.43-.49,4.57-.44,6.43.12,1.86.57,3.4,1.31,4.61,2.23s2.18,1.97,2.91,3.16c.73,1.19,1.33,2.1,1.82,2.75,2.59-.97,4.77-1.74,6.55-2.31,1.78-.56,3.72-.85,5.83-.85,2.59,0,5.01.69,7.28,2.06,2.26,1.38,4.21,3.12,5.83,5.22,1.62,2.1,2.87,4.49,3.76,7.16.89,2.67,1.17,5.3.85,7.89,3.07,2.27,5.54,4.86,7.4,7.77,1.86,2.91,2.79,6.31,2.79,10.2,0,5.83-1.46,10.12-4.37,12.87-2.91,2.75-7.2,4.61-12.87,5.58-1.13,3.08-2.95,5.55-5.46,7.4-2.51,1.86-5.62,2.79-9.35,2.79-2.75,0-5.42-.65-8.01-1.94-2.59-1.29-4.94-2.83-7.04-4.61-1.62,1.3-3.2,2.47-4.73,3.52-1.54,1.05-4.09,1.18-7.65.36,2.43,1.62,3.64,3.72,3.64,6.31s-.08,4.53-.24,5.83c1.13-.32,2.19-.52,3.16-.61.97-.08,1.78-.12,2.43-.12,1.94,0,3.88.45,5.83,1.33,1.94.89,3.72,2.15,5.34,3.76,1.62,1.62,2.95,3.56,4.01,5.83,1.05,2.27,1.58,4.7,1.58,7.28,0,5.18-1.5,9.95-4.49,14.32-3,4.37-8.05,6.63-15.17,6.8-3.24-.33-5.62-.97-7.16-1.94-1.54-.97-2.79-1.94-3.76-2.91ZM441.68,138.13c.97,0,1.71.36,2.2,1.09.49.73.98,1.5,1.46,2.31.33.81,1.06,1.62,2.2,2.43,1.14.81,3.09,1.21,5.86,1.21,2.44,0,4.47-.56,6.1-1.7,1.62-1.13,2.92-2.43,3.9-3.88.97-1.46,1.67-2.95,2.07-4.49.41-1.54.61-2.71.61-3.52,0-3.72-1.09-7-3.28-9.83-2.18-2.83-4.82-4.25-7.89-4.25h-2.79c-1.21,0-2.71.24-4.49.73-2.43,0-3.64-1.37-3.64-4.13v-5.83c-.81-2.75-1.9-4.81-3.28-6.19-1.38-1.37-3.44-2.71-6.19-4.01-.33-.16-.65-.56-.97-1.21-.33-.65-.49-1.13-.49-1.46,0-.97.44-1.7,1.34-2.19.89-.49,1.9-.73,3.03-.73,1.78.65,3.64,1.21,5.58,1.7s3.88.81,5.83.97c1.29,0,2.34-.4,3.16-1.21.81-.81,1.62-1.78,2.43-2.91,1.46-2.26,2.83-3.4,4.13-3.4.97,0,1.78.41,2.43,1.21.65.81,1.37,1.7,2.19,2.67.16.49.56,1.05,1.21,1.7,1.13.81,2.59,1.58,4.37,2.31,1.78.73,3.48,1.09,5.1,1.09,3.24,0,5.38-.73,6.43-2.19,1.05-1.46,1.82-2.83,2.31-4.13.32-1.13.73-2.1,1.21-2.91.49-.81,1.29-1.21,2.43-1.21,4.53.33,7.89-.44,10.07-2.31,2.18-1.86,3.19-5.06,3.03-9.59-.33-4.85-1.17-8.05-2.54-9.59-1.37-1.54-3.35-2.31-5.93-2.31-1.29,0-2.22-.12-2.78-.36-.57-.24-.85-.93-.85-2.06,0-.97.28-1.9.85-2.79.56-.89.85-2.22.85-4.01.32-3.4-.73-6.39-3.15-8.98-2.42-2.59-5.25-3.88-8.47-3.88-2.1,0-4.16.45-6.18,1.33-2.02.89-3.92,1.74-5.69,2.55-.49.33-.93.57-1.33.73-.41.16-.93.24-1.57.24-.97,0-1.66-.36-2.06-1.09s-.69-1.49-.85-2.31c0-2.26-1.05-4.21-3.15-5.83-2.1-1.62-4.6-2.02-7.51-1.21-1.29.33-2.14.85-2.54,1.58-.4.73-.77,1.5-1.09,2.31-.33.97-.69,1.82-1.09,2.55-.4.73-1.25,1.09-2.54,1.09-.81,0-1.54-.28-2.18-.85-.65-.56-1.21-1.09-1.69-1.58l-.73-.73c-1.29-.97-2.83-1.78-4.6-2.43-1.77-.65-3.39-.97-4.84-.97-3.23,0-6.14,1.42-8.72,4.25-2.58,2.83-3.79,6.35-3.63,10.56,0,.65.16,1.62.48,2.91.16.49.28.97.36,1.46.08.49.12,1.13.12,1.94,0,.97-.2,1.58-.61,1.82-.4.24-1.17.36-2.3.36-2.26,0-4,.12-5.21.36-1.21.24-1.82,1.9-1.82,4.98,0,.81.24,1.7.73,2.67.16.33.32.69.48,1.09.16.41.24,1.01.24,1.82,0,.49-.24.73-.72.73-2.42.16-4.68,1.54-6.78,4.13-2.1,2.59-3.15,5.1-3.15,7.53,0,.49.04,1.13.12,1.94.08.81.39,1.82.93,3.03.55,1.21,1.44,2.51,2.69,3.88,1.24,1.38,2.99,2.88,5.24,4.49.81.49,1.54,1.01,2.18,1.58.65.57.97,1.34.97,2.31,0,.81-.33,1.5-.97,2.06-.65.57-1.3,1.18-1.94,1.82-.97,1.46-1.7,3-2.18,4.61-.49,1.62-.73,3-.73,4.13,0,2.59.72,4.85,2.15,6.8,1.43,1.94,3.43,2.91,5.98,2.91.32,0,.64-.04.96-.12.32-.08.72-.12,1.19-.12.48-.16,1.04-.24,1.67-.24h1.92c.64,0,1.23.28,1.79.85.56.57.84,1.33.84,2.31,0,.65-.33,1.3-.97,1.94-.49.49-.73.97-.73,1.46-.16,3.4.28,6.15,1.34,8.25,1.05,2.11,2.4,3.72,4.02,4.86,1.62,1.13,3.33,1.9,5.12,2.31,1.79.41,3.42.61,4.88.61,1.62,0,2.72-.36,3.29-1.09.57-.73,1.1-1.49,1.59-2.31.49-.81.93-1.41,1.34-1.82.41-.4,1.02-.61,1.83-.61ZM440.35,67.97c0-1.29.57-2.55,1.7-3.76,1.13-1.21,2.1-2.22,2.91-3.03s1.62-1.29,2.43-1.46c.81-.16,1.62-.24,2.43-.24,2.26,0,4.53.73,6.8,2.19,2.26,1.46,3.4,3.56,3.4,6.31,0,2.59-.81,4.57-2.43,5.95-1.62,1.38-3.64,2.06-6.07,2.06-1.94,0-4.29-.69-7.04-2.06-2.75-1.37-4.13-3.36-4.13-5.95ZM447.63,66.51c0,2.27,1.29,3.4,3.88,3.4,1.29,0,1.94-.56,1.94-1.7,0-.97-.45-1.66-1.34-2.06-.89-.4-1.74-.61-2.55-.61-.33,0-.73.08-1.21.24-.49.16-.73.41-.73.73Z"/>
  <path class="cls-1" d="M570.95,146.14c-.65.81-1.66,1.74-3.03,2.79-1.38,1.05-3.68,1.42-6.92,1.09-5.83,0-10.56-2.1-14.2-6.3-3.64-4.2-5.38-9.37-5.22-15.51-3.98-.32-7.45-1.98-10.39-4.97-2.95-2.99-4.42-6.66-4.42-11.03,0-1.93.32-3.71.97-5.33.64-1.62,1.37-3.23,2.18-4.84l.49-.97c.16-.32.32-.6.49-.85.16-.24.24-.44.24-.61l-1.94-1.7c-2.29-2.26-4.36-4.52-6.21-6.78-1.85-2.26-2.77-5.17-2.77-8.72s1.05-6.78,3.16-9.21c2.1-2.42,4.53-4.76,7.28-7.02-1.46-3.07-1.3-5.94.49-8.6,1.78-2.66,4.29-4.08,7.53-4.24-.49-3.71-.21-7.02.85-9.93,1.05-2.91,2.51-5.37,4.37-7.39,1.86-2.02,4.01-3.55,6.43-4.6,2.43-1.05,4.86-1.57,7.28-1.57s4.69.38,6.8,1.15c2.1.77,3.8,1.68,5.1,2.75,1.46-1.68,2.91-2.83,4.37-3.45s3.24-1.09,5.34-1.42c2.43-.49,4.57-.44,6.43.12,1.86.57,3.4,1.31,4.61,2.23s2.18,1.97,2.91,3.16c.73,1.19,1.33,2.1,1.82,2.75,2.59-.97,4.77-1.74,6.55-2.31,1.78-.56,3.72-.85,5.83-.85,2.59,0,5.02.69,7.28,2.06,2.26,1.38,4.21,3.12,5.83,5.22,1.62,2.1,2.87,4.49,3.76,7.16.89,2.67,1.17,5.3.85,7.89,3.07,2.27,5.54,4.86,7.4,7.77,1.86,2.91,2.79,6.31,2.79,10.2,0,5.83-1.46,10.12-4.37,12.87-2.91,2.75-7.2,4.61-12.87,5.58-1.13,3.08-2.96,5.55-5.46,7.4-2.51,1.86-5.62,2.79-9.35,2.79-2.75,0-5.42-.65-8.01-1.94-2.59-1.29-4.94-2.83-7.04-4.61-1.62,1.3-3.2,2.47-4.73,3.52-1.54,1.05-4.09,1.18-7.65.36,2.43,1.62,3.64,3.72,3.64,6.31s-.08,4.53-.24,5.83c1.13-.32,2.19-.52,3.16-.61.97-.08,1.78-.12,2.43-.12,1.94,0,3.88.45,5.83,1.33,1.94.89,3.72,2.15,5.34,3.76,1.62,1.62,2.95,3.56,4.01,5.83,1.05,2.27,1.58,4.7,1.58,7.28,0,5.18-1.5,9.95-4.49,14.32-3,4.37-8.05,6.63-15.17,6.8-3.24-.33-5.62-.97-7.16-1.94-1.54-.97-2.79-1.94-3.76-2.91ZM571.31,138.13c.97,0,1.71.36,2.2,1.09.49.73.98,1.5,1.46,2.31.33.81,1.06,1.62,2.2,2.43,1.14.81,3.09,1.21,5.86,1.21,2.44,0,4.47-.56,6.1-1.7,1.62-1.13,2.92-2.43,3.9-3.88.97-1.46,1.67-2.95,2.07-4.49.41-1.54.61-2.71.61-3.52,0-3.72-1.09-7-3.28-9.83-2.18-2.83-4.82-4.25-7.89-4.25h-2.79c-1.21,0-2.71.24-4.49.73-2.43,0-3.64-1.37-3.64-4.13v-5.83c-.81-2.75-1.9-4.81-3.28-6.19-1.38-1.37-3.44-2.71-6.19-4.01-.33-.16-.65-.56-.97-1.21-.33-.65-.49-1.13-.49-1.46,0-.97.44-1.7,1.34-2.19.89-.49,1.9-.73,3.03-.73,1.78.65,3.64,1.21,5.58,1.7s3.88.81,5.83.97c1.29,0,2.34-.4,3.16-1.21.81-.81,1.62-1.78,2.43-2.91,1.46-2.26,2.83-3.4,4.13-3.4.97,0,1.78.41,2.43,1.21.65.81,1.37,1.7,2.19,2.67.16.49.56,1.05,1.21,1.7,1.13.81,2.59,1.58,4.37,2.31,1.78.73,3.48,1.09,5.1,1.09,3.24,0,5.38-.73,6.43-2.19,1.05-1.46,1.82-2.83,2.31-4.13.32-1.13.73-2.1,1.21-2.91.49-.81,1.29-1.21,2.43-1.21,4.53.33,7.89-.44,10.07-2.31,2.18-1.86,3.19-5.06,3.03-9.59-.33-4.85-1.17-8.05-2.54-9.59-1.37-1.54-3.35-2.31-5.93-2.31-1.29,0-2.22-.12-2.79-.36-.56-.24-.85-.93-.85-2.06,0-.97.28-1.9.85-2.79.57-.89.85-2.22.85-4.01.32-3.4-.73-6.39-3.15-8.98-2.42-2.59-5.25-3.88-8.47-3.88-2.1,0-4.16.45-6.18,1.33-2.02.89-3.92,1.74-5.69,2.55-.49.33-.93.57-1.33.73-.41.16-.93.24-1.57.24-.97,0-1.66-.36-2.06-1.09s-.69-1.49-.85-2.31c0-2.26-1.05-4.21-3.15-5.83-2.1-1.62-4.6-2.02-7.51-1.21-1.29.33-2.14.85-2.54,1.58-.4.73-.77,1.5-1.09,2.31-.33.97-.69,1.82-1.09,2.55-.4.73-1.25,1.09-2.54,1.09-.81,0-1.54-.28-2.18-.85-.65-.56-1.21-1.09-1.69-1.58l-.73-.73c-1.29-.97-2.83-1.78-4.6-2.43-1.77-.65-3.39-.97-4.84-.97-3.23,0-6.14,1.42-8.72,4.25-2.58,2.83-3.79,6.35-3.63,10.56,0,.65.16,1.62.48,2.91.16.49.28.97.36,1.46.08.49.12,1.13.12,1.94,0,.97-.2,1.58-.61,1.82-.4.24-1.17.36-2.3.36-2.26,0-4,.12-5.21.36-1.21.24-1.82,1.9-1.82,4.98,0,.81.24,1.7.73,2.67.16.33.32.69.48,1.09.16.41.24,1.01.24,1.82,0,.49-.24.73-.72.73-2.42.16-4.68,1.54-6.78,4.13-2.1,2.59-3.15,5.1-3.15,7.53,0,.49.04,1.13.12,1.94.08.81.39,1.82.93,3.03.55,1.21,1.44,2.51,2.69,3.88,1.24,1.38,2.99,2.88,5.24,4.49.81.49,1.54,1.01,2.18,1.58.65.57.97,1.34.97,2.31,0,.81-.33,1.5-.97,2.06-.65.57-1.3,1.18-1.94,1.82-.97,1.46-1.7,3-2.18,4.61-.49,1.62-.73,3-.73,4.13,0,2.59.72,4.85,2.15,6.8,1.43,1.94,3.43,2.91,5.98,2.91.32,0,.64-.04.96-.12.32-.08.72-.12,1.19-.12.48-.16,1.04-.24,1.67-.24h1.92c.64,0,1.23.28,1.79.85.56.57.84,1.33.84,2.31,0,.65-.33,1.3-.97,1.94-.49.49-.73.97-.73,1.46-.16,3.4.28,6.15,1.34,8.25,1.05,2.11,2.4,3.72,4.02,4.86,1.62,1.13,3.33,1.9,5.12,2.31,1.79.41,3.42.61,4.88.61,1.62,0,2.72-.36,3.29-1.09.57-.73,1.1-1.49,1.59-2.31.49-.81.93-1.41,1.34-1.82.41-.4,1.02-.61,1.83-.61ZM569.98,67.97c0-1.29.57-2.55,1.7-3.76,1.13-1.21,2.1-2.22,2.91-3.03s1.62-1.29,2.43-1.46c.81-.16,1.62-.24,2.43-.24,2.26,0,4.53.73,6.8,2.19,2.26,1.46,3.4,3.56,3.4,6.31,0,2.59-.81,4.57-2.43,5.95-1.62,1.38-3.64,2.06-6.07,2.06-1.94,0-4.29-.69-7.04-2.06-2.75-1.37-4.13-3.36-4.13-5.95ZM577.26,66.51c0,2.27,1.29,3.4,3.88,3.4,1.29,0,1.94-.56,1.94-1.7,0-.97-.45-1.66-1.34-2.06-.89-.4-1.74-.61-2.55-.61-.33,0-.73.08-1.21.24-.49.16-.73.41-.73.73Z"/>
  <path class="cls-1" d="M714.9,173.57c0-1.3.2-2.79.61-4.49.4-1.7.77-3.12,1.09-4.25.16-.33.28-.77.36-1.33.08-.57.2-1.01.36-1.33l.49-1.46c0-.16-.33-.89-.97-2.19-.49-.81-1.05-1.94-1.7-3.4-.65-1.46-.97-3.08-.97-4.85,0-2.26.2-4.25.61-5.95.4-1.7,1.25-3.44,2.55-5.22-2.43-1.46-4.49-3.6-6.19-6.43-1.7-2.83-2.55-5.62-2.55-8.38,0-1.62.24-3.04.73-4.25.49-1.21.97-2.22,1.46-3.04.32-.81.64-1.54.97-2.18.32-.64.49-1.21.49-1.7l-.24-.24c-.16,0-.33-.08-.49-.24-1.3-.81-2.95-2.34-4.98-4.61-2.03-2.26-3.03-5.26-3.03-8.98,0-1.46.16-3.03.49-4.73.32-1.7.89-3.28,1.7-4.73.49-.65.97-1.29,1.46-1.94.97-1.29,1.46-2.34,1.46-3.16-.16-.16-.57-.65-1.21-1.46-.65-.81-1.3-1.78-1.94-2.91-.65-1.13-1.21-2.39-1.7-3.76-.49-1.37-.73-2.71-.73-4.01,0-3.4.61-5.74,1.82-7.04,1.21-1.29,2.63-2.43,4.25-3.4,1.94-1.13,3.24-2.18,3.88-3.16.32-.65.52-1.25.61-1.82.08-.56.12-1.25.12-2.06s.04-1.49.12-2.06c.08-.57.2-1.17.36-1.82,1.29-4.37,3.56-7.77,6.8-10.2,3.24-2.43,7.12-3.64,11.65-3.64,1.13,0,2.31.24,3.52.73,1.21.49,2.39.97,3.52,1.46l.97.49c3.24-3.24,6.59-5.54,10.07-6.92,3.48-1.37,7.48-2.06,12.02-2.06,4.21,0,7.97.93,11.29,2.79,3.32,1.86,6.35,4.17,9.1,6.92,5.18-.81,9.59-.93,13.23-.36,3.64.57,6.67,1.58,9.1,3.03s4.29,3.2,5.58,5.22c1.29,2.03,2.18,4.09,2.67,6.19.49,1.62.57,3.56.24,5.83,4.04,1.46,7.77,4.09,11.17,7.89,3.4,3.8,5.1,7.89,5.1,12.26,0,2.59-.69,4.9-2.06,6.92-1.38,2.03-2.71,3.93-4,5.7l-.24.24c2.75,3.73,4.13,7.69,4.13,11.9,0,4.85-1.21,8.38-3.64,10.56-2.43,2.18-5.42,4.17-8.98,5.95.16,2.91-.12,5.95-.85,9.1-.73,3.16-1.9,5.99-3.52,8.5-1.62,2.51-3.73,4.61-6.31,6.31-2.59,1.7-5.58,2.55-8.98,2.55-1.78,0-3.56-.32-5.34-.97-1.78-.65-3.56-1.46-5.34-2.43-1.94,2.27-4.05,3.72-6.31,4.37-2.27.65-5.02.97-8.25.97-1.3,0-2.75-.16-4.37-.49-.49-.16-1.21-.24-2.19-.24v8.98c0,1.46-.69,2.99-2.06,4.61-1.38,1.62-2.55,2.83-3.52,3.64,0,.64.12,1.09.36,1.33.24.24.36.61.36,1.09.49.97.73,2.43.73,4.37v4.61c-1.13,2.43-2.63,4.93-4.49,7.53-1.86,2.59-4.33,3.88-7.4,3.88-1.78,0-3.48-.41-5.1-1.21-1.62-.81-2.91-1.54-3.88-2.18-.16-.16-.29-.24-.36-.24-.08,0-.21-.08-.36-.24-.16,0-.24-.08-.24-.24-.33,0-.89.4-1.7,1.21-.97.81-2.03,1.5-3.16,2.06-1.13.57-2.27.85-3.4.85-4.86,0-8.54-1.5-11.05-4.49-2.51-3-3.76-6.84-3.76-11.53ZM719.75,174.12c0,2.41.92,4.62,2.77,6.63,1.85,2.01,4.22,3.01,7.11,3.01,1.12,0,2.13-.45,3.01-1.33.88-.89,1.73-1.74,2.53-2.55l.96-.97.48-.24h1.45c1.29,0,2.73.81,4.34,2.43,1.45,1.78,3.21,2.67,5.3,2.67.8,0,1.65-.36,2.53-1.08.88-.73,1.65-1.65,2.29-2.78.64-1.13,1.16-2.29,1.57-3.5.4-1.21.6-2.21.6-3.02s-.19-1.49-.57-2.05c-.38-.56-.8-1.17-1.26-1.81-1.37-1.45-2.06-2.98-2.06-4.59,0-.97.36-1.73,1.09-2.29.73-.57,1.49-1.01,2.31-1.33.97-.49,1.94-1.13,2.91-1.93.97-.8,1.46-2.17,1.46-4.1,0-2.09-.41-3.9-1.21-5.43-.81-1.53-1.62-2.94-2.43-4.23-.81-1.29-1.58-2.58-2.31-3.87-.73-1.29-1.09-2.83-1.09-4.61v-2.18l.24-.49.73-.73.49-.24c.16,0,.52.24,1.09.73.57.49,1.01.97,1.33,1.46,1.46,1.46,3.52,3.32,6.19,5.58,2.67,2.26,5.62,3.39,8.86,3.39,3.88,0,6.39-.56,7.53-1.69,1.13-1.13,2.1-2.26,2.91-3.39h-.24c.32-.64.77-1.21,1.33-1.7.57-.49,1.34-.73,2.31-.73.32,0,.85.21,1.58.61.73.41,1.49.85,2.31,1.33.97.81,2.18,1.58,3.64,2.31,1.46.73,2.99,1.09,4.61,1.09s3.24-.52,4.85-1.58c1.62-1.05,3.04-2.39,4.25-4,1.21-1.62,2.22-3.36,3.03-5.22.81-1.86,1.21-3.68,1.21-5.46-.16-.16-.29-.61-.36-1.33-.08-.73-.21-1.42-.36-2.06-.49-.97-.73-2.18-.73-3.64,0-.65.4-1.17,1.21-1.58.81-.4,1.7-.77,2.67-1.09.97-.49,2.02-.97,3.16-1.46,1.13-.49,2.22-1.17,3.28-2.06,1.05-.89,1.9-1.94,2.55-3.16.64-1.21.97-2.71.97-4.49s-.33-3.31-.97-4.61c-.65-1.29-1.38-2.34-2.18-3.16-.65-.81-1.18-1.54-1.58-2.18-.41-.65-.61-1.29-.61-1.94v-1.46c0-.32.08-.49.24-.49,1.29-1.13,2.83-2.59,4.61-4.37,1.78-1.78,2.67-3.72,2.67-5.83,0-2.59-.93-5.01-2.79-7.28-1.86-2.26-3.85-4.29-5.95-6.07l.24.24c-1.3-.64-2.27-1.05-2.91-1.21-.81-.32-1.62-.69-2.43-1.09-.81-.4-1.54-1.01-2.18-1.82.32-6.15-1.01-10.64-4-13.47-3-2.83-7.49-4.25-13.47-4.25-.81,0-1.54.04-2.19.12-.65.08-1.38.2-2.18.36-.81.16-1.54.24-2.18.24h-1.94c-.97,0-1.86-.36-2.67-1.09-.81-.73-1.54-1.49-2.18-2.31-1.3-2.26-3.32-4.01-6.07-5.22-2.75-1.21-5.67-1.82-8.74-1.82-3.4,0-6.35.36-8.86,1.09-2.51.73-4.9,2.39-7.16,4.98-.97,1.13-1.86,2.15-2.67,3.03-.81.89-1.62,1.33-2.43,1.33-1.3,0-2.83-.69-4.61-2.06-.81-.46-1.54-.91-2.18-1.37-.65-.46-1.38-.69-2.18-.69-2.91,0-5.3.56-7.16,1.7-1.86,1.13-3.28,2.62-4.25,4.48-.97,1.86-1.62,3.96-1.94,6.3-.33,2.34-.41,4.72-.24,7.14,0,.33-.08.49-.24.49-.65.49-1.13.77-1.46.85-.33.08-.73.2-1.21.36-1.78.33-3.48,1.26-5.1,2.79-1.62,1.53-2.43,3.35-2.43,5.45s.49,3.71,1.46,4.84,1.94,2.1,2.91,2.91c1.78,1.45,2.67,2.83,2.67,4.12,0,.65-.24,1.34-.73,2.06-.49.73-.97,1.49-1.46,2.3-.97,1.29-1.9,2.78-2.79,4.48-.89,1.7-1.33,3.83-1.33,6.42,0,3.07.89,5.17,2.67,6.3,1.78,1.13,3.48,2.1,5.1,2.91.81.33,1.58.65,2.31.97.73.33,1.09.97,1.09,1.94v1.45l-.24.49-.97.97c-1.3,1.46-2.43,2.79-3.4,4-.97,1.21-1.46,2.86-1.46,4.96,0,3.07.81,5.41,2.43,7.02,1.62,1.62,3.24,3.07,4.86,4.36.97.81,1.82,1.45,2.55,1.94.73.49,1.09,1.13,1.09,1.93,0,.49-.65,1.38-1.94,2.67-.97.97-1.94,2.1-2.91,3.39-.97,1.29-1.46,2.83-1.46,4.6s.49,3.25,1.46,4.46c.97,1.2,1.94,2.29,2.91,3.25.64.64,1.25,1.24,1.82,1.81.57.56.85,1.32.85,2.29,0,.16-.08.32-.24.48-1.94,1.77-3.44,3.57-4.49,5.42-1.05,1.85-1.58,4.14-1.58,6.87ZM755.44,89.82c0-2.26.93-4.13,2.79-5.58,1.86-1.46,3.92-2.18,6.19-2.18,3.24,0,6.07.77,8.5,2.31,2.43,1.54,3.64,3.85,3.64,6.92,0,3.24-.85,5.79-2.55,7.65-1.7,1.86-3.93,2.79-6.68,2.79-7.93,0-11.89-3.96-11.89-11.9ZM761.26,90.55c0,3.88,2.1,5.83,6.31,5.83,1.29,0,2.22-.52,2.79-1.58.56-1.05.85-2.22.85-3.52,0-1.13-.73-1.98-2.19-2.55-1.46-.57-2.67-.85-3.64-.85s-1.9.24-2.79.73c-.89.49-1.33,1.13-1.33,1.94Z"/>
  <path class="cls-1" d="M906.19,148.56c-1.46,1.13-2.95,2.1-4.49,2.91-1.54.81-3.12,1.21-4.73,1.21-5.5,0-10.04-1.09-13.59-3.28-3.56-2.19-6.07-6.11-7.53-11.77-.81.16-1.62.24-2.43.24h-2.18c-5.18,0-9.59-1.82-13.23-5.46-3.64-3.64-5.46-8.21-5.46-13.72,0-2.59.44-5.46,1.33-8.62.89-3.16,3.44-6.11,7.65-8.86-4.21-3.06-7.2-5.91-8.98-8.57-1.78-2.65-2.67-6.56-2.67-11.71,0-3.22.61-6.24,1.82-9.05,1.21-2.81,2.79-5.23,4.73-7.24,1.94-2.01,4.21-3.62,6.8-4.83,2.59-1.21,5.34-1.89,8.25-2.05.64-5.25,2.55-9.55,5.7-12.92,3.16-3.36,8.13-5.04,14.93-5.04,2.1,0,4.08.36,5.95,1.09,1.86.73,3.68,1.66,5.46,2.79,1.78-.97,3.84-1.86,6.19-2.67,2.34-.81,4.73-1.21,7.16-1.21,2.75,0,5.42.77,8.01,2.31,2.59,1.54,4.69,3.6,6.31,6.19,2.75-3.07,5.91-5.22,9.47-6.43,3.56-1.21,7.44-1.82,11.65-1.82.49,0,1.54.12,3.16.36,1.62.24,2.75.53,3.4.85,1.94.49,3.6,1.46,4.98,2.91,1.37,1.46,2.55,2.83,3.52,4.13,2.91,3.72,4.37,8.01,4.37,12.87,0,.81-.21,1.9-.61,3.28-.41,1.38-.93,2.83-1.58,4.37-.65,1.54-1.38,2.91-2.18,4.13-.81,1.21-1.54,1.9-2.18,2.06,3.24,2.1,6.07,4.33,8.5,6.68,2.43,2.35,3.64,5.38,3.64,9.1,0,5.99-2.35,10.52-7.04,13.59-.33.16-.97.53-1.94,1.09-.97.57-1.86,1.01-2.67,1.33,1.62.81,3.88,1.78,6.8,2.91,2.91,1.13,5.74,2.67,8.5,4.61,2.75,1.94,5.14,4.45,7.16,7.53,2.02,3.08,3.03,6.88,3.03,11.41,0,5.99-2.27,10.68-6.8,14.08-4.53,3.4-9.79,5.1-15.78,5.1-1.62,0-3.44-.36-5.46-1.09-2.03-.73-4.05-1.66-6.07-2.79-2.03-1.13-3.93-2.47-5.71-4.01-1.78-1.54-3.24-3.03-4.37-4.49-1.78,2.27-3.6,3.6-5.46,4.01-1.86.41-4.09.12-6.68-.85,0,.97-.24,2.23-.73,3.76s-1.21,3.11-2.18,4.73c-.97,1.62-2.31,2.99-4.01,4.13-1.7,1.13-3.76,1.7-6.19,1.7-2.91,0-5.87-.89-8.86-2.67-3-1.78-5.22-3.88-6.68-6.31ZM910.8,142.98c0,.97.4,1.94,1.21,2.91.81.97,1.78,1.82,2.91,2.55,1.13.73,2.34,1.33,3.64,1.82,1.29.49,2.34.73,3.16.73,1.78,0,3.16-.57,4.13-1.7.97-1.13,1.66-2.51,2.06-4.13.4-1.62.61-3.36.61-5.22v-4.73c.16-.81.52-1.37,1.09-1.7.57-.32,1.17-.49,1.82-.49.81,0,1.41.2,1.82.61.4.41.93.85,1.58,1.33,1.46,1.46,2.95,2.15,4.49,2.06,1.54-.08,2.39-1.49,2.55-4.25.16-.49.2-1.13.12-1.94-.08-.81-.04-1.58.12-2.31.16-.73.44-1.37.85-1.94.4-.57,1.17-.85,2.31-.85,1.29,0,2.1.49,2.43,1.46.32.97.57,2.03.73,3.16,0,.97.08,1.7.24,2.18.32,1.3,1.33,2.71,3.03,4.25,1.7,1.54,3.6,2.95,5.71,4.25,2.1,1.3,4.25,2.43,6.43,3.4,2.18.97,3.92,1.46,5.22,1.46,1.78,0,3.6-.24,5.46-.73,1.86-.49,3.56-1.26,5.1-2.31,1.54-1.05,2.79-2.39,3.76-4.01.97-1.62,1.46-3.49,1.46-5.6,0-2.76-.77-5.23-2.31-7.42-1.54-2.19-3.44-4.13-5.7-5.84-2.27-1.7-4.73-3.16-7.4-4.38-2.67-1.22-5.22-2.23-7.65-3.04-.65,0-1.54-.24-2.67-.73-1.13-.49-1.86-.98-2.19-1.46-.33-.32-.85-.97-1.58-1.95-.73-.97-1.09-1.87-1.09-2.68s.36-1.38,1.09-1.7c.73-.32,1.74-.73,3.03-1.22,1.13-.32,2.43-.77,3.88-1.33,1.46-.57,2.83-1.34,4.13-2.31,1.29-.97,2.34-2.15,3.16-3.53.81-1.38,1.21-3.04,1.21-4.99,0-2.59-.97-4.62-2.91-6.08-1.94-1.46-3.8-2.84-5.58-4.14h-5.34c-.81,0-1.42-.41-1.82-1.22-.41-.81-.61-1.46-.61-1.95,0-.81.36-1.58,1.09-2.31.73-.73,1.49-1.42,2.31-2.07.81-.32,1.33-.56,1.58-.73.24-.16.44-.32.61-.49,1.29-1.46,2.51-3.16,3.64-5.11,1.13-1.95,1.7-4.05,1.7-6.33,0-2.59-.74-5.03-2.2-7.3s-3.09-4.14-4.89-5.6c-.82-.65-1.96-1.01-3.42-1.1-1.46-.08-2.69-.12-3.66-.12-3.75,0-7.33.93-10.75,2.79-3.42,1.86-5.78,4.57-7.08,8.13,0,.81-.04,1.42-.12,1.82-.08.41-.12.69-.12.85-.82,1.13-1.71,1.7-2.69,1.7-1.63,0-2.77-.69-3.42-2.06-.65-1.37-.97-2.95-.97-4.73,0-2.75-.93-4.98-2.79-6.68-1.86-1.7-4-2.55-6.43-2.55-1.62,0-3.72.45-6.31,1.34-2.59.89-4.29,2.23-5.1,4.01-.33.49-.69.89-1.09,1.21-.41.33-1.01.49-1.82.49-.65,0-1.26-.24-1.82-.73-.57-.49-1.01-1.05-1.33-1.7-.65-.97-1.46-1.9-2.43-2.79-.97-.89-2.59-1.33-4.85-1.33-4.05,0-7.2.82-9.47,2.46-2.27,1.64-3.8,4.76-4.61,9.35-.16.82-.28,1.64-.36,2.46-.08.82-.04,1.64.12,2.46v.49c0,.16-.08.33-.24.49-.16.33-.49.49-.97.49h-.49c-5.34-.32-10,1.05-13.96,4.13-3.97,3.08-5.95,7.45-5.95,13.11,0,3.88,1.13,7.2,3.4,9.95,2.26,2.75,5.34,4.53,9.22,5.34,0,.16.08.24.24.24h.73c.32.16.56.24.73.24.32.33.69.77,1.09,1.33.4.57.61,1.09.61,1.58,0,1.46-.57,2.55-1.7,3.28-1.13.73-2.35,1.34-3.64,1.82-.65.33-1.38.73-2.19,1.21-.81.49-1.46.97-1.94,1.46-1.46,1.13-2.51,2.71-3.16,4.73-.65,2.03-.97,4.09-.97,6.19,0,3.73,1.21,6.88,3.64,9.47,2.43,2.59,5.58,3.88,9.47,3.88.81,0,1.66-.2,2.55-.61.89-.4,1.66-.77,2.31-1.09.49-.32,1.09-.61,1.82-.85.73-.24,1.42-.36,2.06-.36,2.1,0,3.16.97,3.16,2.91,0,.65-.08,1.01-.24,1.09-.16.08-.33.28-.49.61-.49.81-.73,1.54-.73,2.18,0,3.24,1.17,5.79,3.52,7.65,2.34,1.86,5.54,2.79,9.59,2.79,1.78,0,3.24-.32,4.37-.97,1.13-.64,2.43-1.94,3.88-3.88.64-.81,1.33-1.58,2.06-2.31.73-.73,1.58-1.09,2.55-1.09.64,0,1.29.28,1.94.85.64.57.97,1.25.97,2.06,0,.33-.04.53-.12.61-.08.08-.12.21-.12.36v.97ZM896.23,91.52c0-.81.12-1.9.36-3.28.24-1.37.81-2.67,1.7-3.88.89-1.21,2.22-2.18,4-2.91,1.78-.73,4.29-.85,7.53-.36,2.59.49,4.86,1.98,6.8,4.49,1.94,2.51,2.91,4.9,2.91,7.16s-.57,4.57-1.7,6.92c-1.13,2.35-2.83,3.93-5.1,4.73h-2.91c-9.07,0-13.59-4.29-13.59-12.87ZM902.06,91.27c0,2.75.64,4.65,1.94,5.7,1.29,1.05,3.32,1.58,6.07,1.58,1.29,0,2.1-.77,2.43-2.31.32-1.54.49-2.87.49-4.01,0-1.29-.53-2.39-1.58-3.28-1.05-.89-2.23-1.33-3.52-1.33s-2.59.16-3.88.49c-1.3.33-1.94,1.38-1.94,3.16Z"/>
  <path class="cls-1" d="M1009.84,133.76c0-.49.08-.97.24-1.46.16-.32.24-.69.24-1.09s.08-.77.24-1.09c.49-.97.73-1.7.73-2.19-4.7-4.69-7.04-10.11-7.04-16.26,0-2.75.4-5.18,1.21-7.28.81-2.1,2.34-4.29,4.61-6.55-1.78-1.78-3.2-3.6-4.25-5.46-1.05-1.86-1.58-4.25-1.58-7.16,0-1.78.36-3.68,1.09-5.7.73-2.02,1.58-3.84,2.55-5.46-.97-1.78-1.94-3.56-2.91-5.34-.97-1.78-1.46-3.8-1.46-6.07,0-3.24.85-5.91,2.55-8.01,1.7-2.1,4.17-3.4,7.4-3.88.64-4.04,2.06-7,4.25-8.86,2.18-1.86,5.62-2.79,10.32-2.79,2.91,0,5.42.41,7.53,1.21,2.1.81,3.88,1.86,5.34,3.16,1.46,1.3,2.67,2.83,3.64,4.61.97,1.78,1.86,3.64,2.67,5.58,2.1-1.13,4.08-1.78,5.95-1.94,1.86-.16,4.33-.24,7.4-.24,1.46-3.56,3.56-5.99,6.31-7.28,2.75-1.29,6.07-1.94,9.95-1.94,1.46,0,2.83.53,4.13,1.58,1.29,1.05,2.67,1.58,4.13,1.58,1.13,0,2.26-.12,3.4-.36,1.13-.24,2.34-.36,3.64-.36,6.47,0,11.61,1.87,15.42,5.61,3.8,3.74,4.89,8.38,3.28,13.91.81.65,1.62,1.71,2.43,3.17.81,1.46,1.37,3.9,1.7,7.32,0,6.35-1.54,11.27-4.61,14.76-3.08,3.5-8.01,5.24-14.81,5.24-1.13,0-2.47-.24-4-.73-1.54-.49-2.79-.97-3.76-1.46-3.88,3.07-7.93,4.6-12.14,4.6-2.91,0-5.62-.48-8.13-1.45-2.51-.97-4.41-2.83-5.7-5.58-.49.33-1.7.85-3.64,1.58-1.94.73-4.21.69-6.8-.12-.33,2.43-.77,4.53-1.33,6.3-.57,1.78-1.33,3.79-2.31,6.04,1.94,2.26,3.48,4.43,4.61,6.52,1.13,2.09,1.7,4.51,1.7,7.25,0,3.54-.45,5.84-1.33,6.88-.89,1.05-1.98,1.98-3.28,2.78-.65.32-1.21.6-1.7.85s-.89.68-1.21,1.33c-.16,4.19-1.18,7.69-3.03,10.51-1.86,2.82-4.9,5.04-9.1,6.65-.33.16-.81.33-1.46.49-.49.16-1.01.24-1.58.24h-1.58c-1.94,0-4.09-.24-6.43-.73-2.35-.49-4.53-1.25-6.55-2.31-2.03-1.05-3.68-2.43-4.98-4.13-1.3-1.7-1.94-3.84-1.94-6.43ZM1015.67,133.76c0,1.62.44,2.91,1.33,3.88.89.97,2.02,1.74,3.4,2.31,1.37.57,2.87.97,4.49,1.21,1.62.24,3.07.36,4.37.36,2.43,0,4.86-.69,7.28-2.06,2.43-1.37,3.64-3.52,3.64-6.43v-1.7c-1.3-.64-1.94-1.78-1.94-3.4,0-.81.44-1.41,1.33-1.82.89-.4,1.74-.77,2.55-1.09,1.29-.49,2.63-1.21,4-2.18,1.37-.97,2.06-2.75,2.06-5.34,0-2.26-.57-4.17-1.7-5.71-1.13-1.54-2.27-2.87-3.4-4.01-.81-.65-1.5-1.29-2.06-1.94-.57-.64-.85-1.37-.85-2.18s.16-1.41.49-1.82c.32-.4.81-.93,1.46-1.58.81-.81,1.54-1.74,2.18-2.79.64-1.05.97-2.55.97-4.49v-2.67c-.49-.49-1.05-1.29-1.7-2.43-.65-1.13-.97-2.02-.97-2.67,0-.81.28-1.58.85-2.31.57-.73,1.49-1.09,2.79-1.09.81,0,1.21.08,1.21.24s.08.33.24.49c.64.81,1.46,1.62,2.43,2.43.97.81,2.34,1.21,4.13,1.21.97,0,1.82-.28,2.55-.85.73-.57,1.42-1.13,2.06-1.7.64-.57,1.29-1.13,1.94-1.7.65-.57,1.37-.85,2.19-.85.97,0,1.66.33,2.06.97.4.65.85,1.46,1.33,2.43.64,1.3,1.58,2.75,2.79,4.37,1.21,1.62,3.36,2.43,6.43,2.43,1.62,0,3.11-.52,4.49-1.58,1.37-1.05,2.55-2.06,3.52-3.03,1.13-1.13,2.02-1.7,2.67-1.7.81,0,1.54.2,2.18.61.65.41,1.37.85,2.19,1.33.64.33,1.33.73,2.06,1.21.73.49,1.66.73,2.79.73,9.06,0,13.59-4.53,13.59-13.59-.33-2.75-.85-4.61-1.58-5.58s-1.42-1.62-2.06-1.94c-.33-.16-.61-.32-.85-.49-.24-.16-.36-.64-.36-1.46,1.13-2.91,1.49-5.46,1.09-7.65-.41-2.18-1.3-3.92-2.67-5.22-1.38-1.29-3.03-2.22-4.98-2.79-1.94-.57-3.8-.69-5.58-.36-1.3.33-2.59.69-3.88,1.09-1.3.41-2.59.61-3.88.61-1.46,0-2.67-.56-3.64-1.7-.97-1.13-2.27-1.7-3.88-1.7-4.37,0-7.16.81-8.38,2.43-1.21,1.62-2.06,3.16-2.55,4.61-.33.97-.69,1.78-1.09,2.43-.41.65-1.01.97-1.82.97-.97,0-1.66-.08-2.06-.24-.41-.16-.85-.32-1.33-.49-.97-.32-1.7-.49-2.19-.49-3.4,0-5.75.61-7.04,1.82-1.3,1.21-2.27,2.31-2.91,3.28-.49.65-1.01,1.21-1.58,1.7-.57.49-1.09.73-1.58.73-.65,0-1.3-.04-1.94-.12-.65-.08-.97-.52-.97-1.33v-8.98c-.33-2.59-1.86-4.93-4.61-7.04-2.75-2.1-5.26-3.16-7.53-3.16-2.43,0-4.37.36-5.83,1.09s-2.55,1.62-3.28,2.67c-.73,1.05-1.21,2.11-1.46,3.16-.24,1.05-.36,1.9-.36,2.55,0,.49-.16.89-.49,1.21-.16.16-.24.33-.24.49-2.1.33-4,.93-5.7,1.82-1.7.89-2.55,2.55-2.55,4.98,0,2.1.69,3.97,2.06,5.58,1.37,1.62,2.55,2.91,3.52,3.88,1.29.97,1.94,1.78,1.94,2.43,0,1.13-.12,1.66-.36,1.58-.24-.08-.53.04-.85.36-1.3.97-2.59,2.19-3.88,3.64-1.3,1.46-1.94,3.32-1.94,5.58s.61,4.05,1.82,5.34c1.21,1.3,2.39,2.43,3.52,3.4,1.94,1.46,2.91,2.75,2.91,3.88,0,1.3-.89,2.67-2.67,4.13-1.3,1.13-2.55,2.47-3.76,4.01-1.21,1.54-1.82,3.44-1.82,5.71,0,2.75.64,5.06,1.94,6.92,1.29,1.86,2.59,3.44,3.88,4.73,1.62,1.62,2.43,3,2.43,4.13,0,.49-.12.97-.36,1.46-.24.49-.53.97-.85,1.46-.81,1.13-1.21,2.27-1.21,3.4Z"/>
  <path class="cls-1" d="M1162.77,155.85c-3.24,0-6.11-.81-8.62-2.43-2.51-1.62-4.9-3.56-7.16-5.83-.81.16-1.46.24-1.94.24h-2.18c-2.91,0-5.54-.65-7.89-1.95-2.35-1.3-3.52-3.73-3.52-7.29,0-2.27.52-4.13,1.58-5.59,1.05-1.46,2.31-3.08,3.76-4.87l-.73-.73c-.81-.81-1.78-1.98-2.91-3.52-1.13-1.54-1.86-3.93-2.18-7.17,0-2.27.24-4.21.73-5.84.49-1.62,1.54-3.32,3.16-5.11-1.13-1.62-2.18-2.88-3.16-3.77-.97-.89-1.46-2.8-1.46-5.72,0-2.43.24-4.33.73-5.72.49-1.38,1.62-2.96,3.4-4.74-2.27-2.1-3.8-4.01-4.61-5.71-.81-1.7-1.21-3.93-1.21-6.69,0-2.43.32-4.5.97-6.2.65-1.7,1.62-3.44,2.91-5.23-2.59-2.43-3.88-5.59-3.88-9.48,0-3.4,1.29-6.65,3.88-9.73-2.59-3.57-3.88-7.38-3.88-11.43,0-3.73.61-6.73,1.82-9,1.21-2.27,3.19-4.54,5.95-6.81-.33-1.62-.49-2.75-.49-3.41,0-2.27.52-4.17,1.58-5.71,1.05-1.54,2.39-2.8,4.01-3.77,1.62-.97,3.28-1.66,4.98-2.07,1.7-.41,3.19-.61,4.49-.61,3.88,0,7.32,1.18,10.32,3.52,2.99,2.35,4.49,5.62,4.49,9.83,0,2.1-.08,3.48-.24,4.13,3.24,1.3,5.83,2.67,7.77,4.13,1.94,1.46,2.91,4.13,2.91,8.01,0,5.5-2.19,9.71-6.55,12.62,1.78,1.78,2.99,3.52,3.64,5.22.64,1.7.97,3.76.97,6.19,0,2.27-.61,4.21-1.82,5.83-1.21,1.62-2.55,3.32-4.01,5.1.81.65,1.46,1.09,1.94,1.33s1.05.69,1.7,1.33c.49-.97,1.25-2.14,2.31-3.52,1.05-1.37,3.44-2.06,7.16-2.06h6.8c.65-4.69,2.47-8.66,5.46-11.9,2.99-3.24,7-4.85,12.02-4.85,1.78,0,3.56.2,5.34.61,1.78.41,3.64,1.42,5.58,3.03,3.4-2.75,7.68-4.13,12.87-4.13,2.43,0,4.45.45,6.07,1.33,1.62.89,2.95,1.98,4.01,3.28,1.05,1.3,1.78,2.71,2.18,4.25.4,1.54.61,2.95.61,4.25,0,.81-.16,1.58-.49,2.31-.33.73-.57,1.5-.73,2.31,1.46,2.1,2.51,3.93,3.16,5.46.64,1.54.97,3.44.97,5.7,0,3.24-1.3,6.15-3.88,8.74s-5.67,3.88-9.22,3.88c-1.13,0-2.03-.04-2.67-.12-.65-.08-1.54-.36-2.67-.85-1.46,2.91-3.24,5.02-5.34,6.31-2.11,1.3-4.86,1.94-8.25,1.94-2.27,0-4.41-.12-6.43-.36-2.03-.24-3.76-1.34-5.22-3.28l-2.43,2.18-.24.24-.73.49c.81.81,1.5,1.54,2.06,2.19.57.65,1.25,1.3,2.06,1.95,2.1-.49,4.45-.73,7.04-.73,6.47,0,11.49,2.2,15.05,6.58,2.26,2.76,3.48,5.77,3.64,9.02,3.56.49,6.96,1.83,10.2,4.02,3.24,2.19,4.85,5.48,4.85,9.87,0,3.74-1.09,6.58-3.28,8.53-2.18,1.95-4.73,3.33-7.65,4.14,0,.82.08,1.46.24,1.95.16.49.28.94.36,1.34.08.41.12.93.12,1.58,0,2.93-.81,5.48-2.43,7.68-1.62,2.19-4.05,3.29-7.28,3.29-.97,0-1.94-.24-2.91-.73-1.3-.65-2.11-.97-2.43-.97s-.57.08-.73.24l-.97.49c-1.3.64-2.59.97-3.88.97-3.72,0-6.43-1.08-8.13-3.22-1.7-2.15-2.95-4.88-3.76-8.19h-.97c-.49.16-1.13.24-1.94.24h-1.7c-2.27,0-4.21-.52-5.83-1.58-1.62-1.05-2.96-2.39-4.01-4.01-1.05-1.62-1.9-3.4-2.55-5.34-.65-1.94-.97-3.88-.97-5.83h-3.4c.16,2.91.2,5.18.12,6.8-.08,1.62-.29,2.91-.61,3.88-.33.97-.77,1.7-1.33,2.18-.57.49-1.33.97-2.31,1.46v4.9c-.33,2.81-1.82,5.28-4.49,7.42-2.67,2.14-5.22,3.21-7.65,3.21ZM1171.75,124.29c-.33-.32-.57-.97-.73-1.94-.16-.97.08-1.86.73-2.67.97-1.46,2.1-1.7,3.4-.73.65.33,1.29.65,1.94.97.64.33,1.37.57,2.18.73.32,0,.89.04,1.7.12.81.08,1.62.12,2.43.12.81.16,1.66.24,2.55.24h1.82c.81,0,1.25.33,1.34.97.08.65.12,1.21.12,1.7,0,.65-.16,1.46-.49,2.43-.16.33-.33.73-.49,1.21-.16.49-.24.89-.24,1.21,0,2.43.93,4.53,2.78,6.31,1.85,1.78,3.91,2.67,6.16,2.67,1.13,0,2.34-.32,3.63-.97.96-.64,2.01-.97,3.14-.97.8,0,1.45.08,1.93.24.48.16.72.73.72,1.7,0,.33-.04.65-.12.97-.08.33-.2.73-.36,1.21-.16.65-.24,1.7-.24,3.16,0,1.3.6,2.59,1.81,3.88,1.21,1.3,2.62,1.94,4.23,1.94.8,0,1.37-.28,1.69-.85.32-.57.64-1.09.97-1.58.32-.71.68-1.33,1.08-1.87.4-.53,1.17-.8,2.29-.8.97,0,1.77.68,2.42,2.04.32.85.69,1.57,1.09,2.17.4.59,1.01.89,1.81.89,1.45,0,2.58-.64,3.38-1.94.8-1.29,1.21-2.59,1.21-3.88,0-.81-.21-1.46-.61-1.94-.4-.49-.77-1.05-1.08-1.7-.33-.65-.65-1.13-.97-1.46-.32-.32-.48-.81-.48-1.46,0-1.29.44-2.06,1.33-2.31.88-.24,1.97-.52,3.26-.85,1.77-.49,3.58-1.25,5.43-2.31,1.85-1.05,2.78-3.04,2.78-5.95v-2.67c-1.43-2.26-3.34-3.72-5.73-4.37-2.39-.65-4.93-.81-7.64-.49-.16,0-.32-.08-.48-.24l-.72-.73-.24-.49c0-1.94-.24-3.68-.73-5.22-.49-1.54-1.13-2.87-1.94-4.01-1.46-2.26-3.2-3.84-5.22-4.73-2.03-.89-3.76-1.25-5.22-1.09-.81,0-1.54.08-2.18.24-.65.16-1.38.41-2.19.73-.81.33-1.54.57-2.18.73-.65.16-1.38.24-2.18.24-1.13,0-2.11-.57-2.91-1.7-.81-.97-1.66-1.9-2.55-2.79-.89-.89-1.9-1.74-3.03-2.55-2.11-.65-3.16-1.29-3.16-1.94,0-1.94.36-3.16,1.09-3.64.73-.49,1.66-.89,2.79-1.21l1.94-.73c.81-.49,1.86-1.62,3.16-3.4,1.46-1.46,2.67-1.98,3.64-1.58.97.41,2.1,1.42,3.4,3.03.49.81,1.54,1.38,3.16,1.7,1.62.33,3.56.49,5.83.49.16,0,.69-.12,1.58-.36.89-.24,1.82-.69,2.79-1.34.97-.64,1.82-1.37,2.55-2.18.73-.81,1.09-1.86,1.09-3.16v-3.4l.24-.49c.16,0,.32-.08.48-.24.16,0,.36-.04.6-.12.24-.08.52-.12.84-.12.8,0,1.43.2,1.91.61.48.41,1.12.85,1.91,1.33.64.49,1.27.93,1.91,1.34.64.41,1.35.61,2.15.61,2.39,0,4.35-.89,5.88-2.67,1.53-1.78,2.29-3.8,2.29-6.07,0-1.78-.36-3.07-1.09-3.88-.73-.81-1.5-1.37-2.3-1.7-.8-.49-1.43-.85-1.91-1.09-.48-.24-.72-.85-.72-1.82,0-.81.16-1.41.48-1.82.32-.4.72-.93,1.19-1.58.96-1.29,1.43-2.34,1.43-3.16,0-2.1-.85-3.8-2.54-5.1-1.69-1.29-3.67-1.94-5.92-1.94-1.45,0-2.94.21-4.48.61-1.53.41-2.78,1.09-3.75,2.06-.49.65-1.01,1.3-1.57,1.94-.57.65-1.25.97-2.05.97h-1.21c-.33,0-.49-.08-.49-.24-2.74-3.72-6.37-5.5-10.88-5.34-3.87.32-6.57,2.09-8.1,5.3-1.53,3.21-2.29,6.82-2.29,10.83v1.69c0,.48-.16.72-.49.72-.49.16-.89.24-1.21.24-.49.16-1.05.24-1.7.24l-2.66-1.93-.72-.48h-7.74c-1.29,0-2.18,1.01-2.66,3.01-.49,2.01-.89,4.13-1.21,6.38l-1.45,3.87c0,.33-.24.49-.73.49s-1.05-.16-1.7-.49c-.33-.16-.65-.32-.97-.49-.33-.16-.41-.24-.24-.24-.49,0-.73-.32-.73-.97.81-3.06.24-5.56-1.7-7.5-1.94-1.93-4.29-3.06-7.04-3.39-.49,0-.73-.24-.73-.73v-1.93c0-1.29.4-2.26,1.21-2.9.81-.65,1.7-1.37,2.67-2.18,1.13-.8,2.22-1.57,3.28-2.3,1.05-.72,1.58-1.97,1.58-3.75,0-2.58-.65-4.35-1.94-5.32-1.3-.97-2.59-1.7-3.88-2.18-.65-.32-1.3-.68-1.94-1.08-.65-.4-.97-1.01-.97-1.82,0-.97.36-1.78,1.09-2.42.73-.65,1.58-1.29,2.55-1.93,1.62-.97,3.19-2.14,4.73-3.51,1.54-1.37,2.31-3.27,2.31-5.69,0-2.58-.93-4.23-2.79-4.96-1.86-.72-3.6-1.25-5.22-1.57-1.3-.32-2.35-.56-3.16-.72-.81-.16-1.21-.8-1.21-1.93s.08-1.9.24-2.3c.16-.4.4-.77.73-1.09.97-1.29,1.46-2.5,1.46-3.63,0-2.74-1.13-4.8-3.4-6.17-2.27-1.37-4.78-2.06-7.53-2.06-2.27,0-4.29.53-6.07,1.58-1.78,1.05-2.67,2.7-2.67,4.96,0,1.29.36,2.34,1.09,3.15.73.81,1.09,1.86,1.09,3.15s-.21,2.06-.61,2.3c-.41.24-1.24.36-2.52.36l-1.65-.73c-1.88.33-3.17,1.78-3.88,4.36-.71,2.59-1.06,4.77-1.06,6.54,0,2.59.54,4.73,1.63,6.42,1.09,1.7,2.57,3.52,4.44,5.45l.24.49c0,.97-.78,2.02-2.34,3.15-.78.81-1.64,1.62-2.57,2.42-.94.81-1.4,2.02-1.4,3.63,0,1.94.51,3.27,1.53,4,1.02.73,2,1.41,2.94,2.06.78.49,1.49.97,2.12,1.46.62.49.94,1.13.94,1.94,0,1.13-.71,2.02-2.12,2.66-.63.33-1.26.65-1.88.97-.63.33-1.22.73-1.76,1.21-.55.49-.98,1.25-1.29,2.3-.31,1.05-.47,2.47-.47,4.24,0,2.75.89,4.97,2.67,6.66,1.78,1.7,3.32,3.03,4.61,4,.97.81,1.46,1.62,1.46,2.43s-.73,1.53-2.19,2.18c-1.13.81-2.23,1.7-3.28,2.67-1.05.97-1.58,2.59-1.58,4.85,0,1.78.47,2.99,1.41,3.63.94.64,1.88,1.13,2.82,1.45.78.33,1.53.73,2.23,1.21.71.49,1.06,1.29,1.06,2.42,0,.97-.24,1.74-.73,2.3-.49.56-1.05,1.01-1.7,1.33-1.13.64-2.18,1.54-3.16,2.67-.97,1.13-1.46,3.07-1.46,5.81,0,2.26.79,3.92,2.36,4.97s3.03,1.9,4.36,2.54c.83.49,1.54.85,2.12,1.09s.87.77.87,1.57c0,1.78-.91,3.23-2.74,4.36-1.83,1.13-3.37,2.18-4.61,3.15-1.25.97-1.87,2.18-1.87,3.63,0,1.78.77,2.91,2.31,3.39,1.54.49,3.11.72,4.73.72.81,0,1.58-.24,2.31-.73.73-.49,1.58-.81,2.55-.97.64,0,1.37.67,2.18,2,.97,1.33,2.34,2.87,4.13,4.61,1.78,1.75,4.13,2.62,7.04,2.62,1.78,0,3.56-.61,5.34-1.82,1.78-1.21,2.67-2.95,2.67-5.22,0-.16-.16-.73-.49-1.7-.16-.32-.24-.64-.24-.97s-.08-.64-.24-.97c-.16-.49-.24-.89-.24-1.21,0-.65.24-1.17.73-1.58.49-.4.97-.69,1.46-.85.64-.32,1.33-.77,2.06-1.33.73-.57,1.09-1.9,1.09-4.01,0-1.46-.12-2.51-.36-3.16-.24-.65-.85-1.62-1.82-2.91Z"/>
</svg>